<svg width="32" height="33" viewBox="0 0 32 33" fill="none" xmlns="http://www.w3.org/2000/svg">
<g id="Package">
<path id="Vector" opacity="0.2" d="M4.13848 9.58203C4.04778 9.73586 3.99997 9.91118 4 10.0898V22.4201C4 22.5975 4.04721 22.7717 4.13679 22.9249C4.22637 23.0781 4.35509 23.2046 4.50974 23.2916L15.5097 29.4791C15.6594 29.5634 15.8283 29.6076 16 29.6076L16.0013 29.6076L16.1186 16.2549L4.1385 9.58205L4.13848 9.58203Z" fill="#E0A93D"/>
<path id="Vector_2" d="M28 22.4201V10.0898C28 9.91241 27.9528 9.73816 27.8632 9.585C27.7736 9.43183 27.6449 9.30526 27.4903 9.21827L16.4903 3.03077C16.3406 2.94657 16.1717 2.90234 16 2.90234C15.8283 2.90234 15.6594 2.94657 15.5097 3.03077L4.50974 9.21827C4.35509 9.30526 4.22637 9.43183 4.13679 9.585C4.04721 9.73816 4 9.91241 4 10.0898V22.4201C4 22.5976 4.04721 22.7718 4.13679 22.925C4.22637 23.0782 4.35509 23.2047 4.50974 23.2917L15.5097 29.4792C15.6594 29.5634 15.8283 29.6076 16 29.6076C16.1717 29.6076 16.3406 29.5634 16.4903 29.4792L27.4903 23.2917C27.6449 23.2047 27.7736 23.0782 27.8632 22.925C27.9528 22.7718 28 22.5976 28 22.4201Z" stroke="#E0A93D" stroke-width="2" stroke-linecap="round" stroke-linejoin="round"/>
<path id="Vector_3" d="M22.1278 19.3188V12.8188L10 6.12988" stroke="#E0A93D" stroke-width="2" stroke-linecap="round" stroke-linejoin="round"/>
<path id="Vector_4" d="M27.8623 9.58328L16.1188 16.2549L4.13867 9.58203" stroke="#E0A93D" stroke-width="2" stroke-linecap="round" stroke-linejoin="round"/>
<path id="Vector_5" d="M16.1193 16.2549L16.002 29.6075" stroke="#E0A93D" stroke-width="2" stroke-linecap="round" stroke-linejoin="round"/>
</g>
</svg>
