<svg width="30" height="31" viewBox="0 0 30 31" fill="none" xmlns="http://www.w3.org/2000/svg">
<g id="fluent:money-20-regular">
<path id="Vector" d="M10.5 14C10.5 13.2044 10.8161 12.4413 11.3787 11.8787C11.9413 11.3161 12.7044 11 13.5 11C14.2956 11 15.0587 11.3161 15.6213 11.8787C16.1839 12.4413 16.5 13.2044 16.5 14C16.5 14.7956 16.1839 15.5587 15.6213 16.1213C15.0587 16.6839 14.2956 17 13.5 17C12.7044 17 11.9413 16.6839 11.3787 16.1213C10.8161 15.5587 10.5 14.7956 10.5 14ZM13.5 12.5C13.1022 12.5 12.7206 12.658 12.4393 12.9393C12.158 13.2206 12 13.6022 12 14C12 14.3978 12.158 14.7794 12.4393 15.0607C12.7206 15.342 13.1022 15.5 13.5 15.5C13.8978 15.5 14.2794 15.342 14.5607 15.0607C14.842 14.7794 15 14.3978 15 14C15 13.6022 14.842 13.2206 14.5607 12.9393C14.2794 12.658 13.8978 12.5 13.5 12.5ZM5.25 6.5C4.65326 6.5 4.08097 6.73705 3.65901 7.15901C3.23705 7.58097 3 8.15326 3 8.75V19.25C3 19.8467 3.23705 20.419 3.65901 20.841C4.08097 21.2629 4.65326 21.5 5.25 21.5H21.75C22.3467 21.5 22.919 21.2629 23.341 20.841C23.7629 20.419 24 19.8467 24 19.25V8.75C24 8.15326 23.7629 7.58097 23.341 7.15901C22.919 6.73705 22.3467 6.5 21.75 6.5H5.25ZM4.5 8.75C4.5 8.55109 4.57902 8.36032 4.71967 8.21967C4.86032 8.07902 5.05109 8 5.25 8H7.5V9.5C7.5 9.89782 7.34196 10.2794 7.06066 10.5607C6.77936 10.842 6.39782 11 6 11H4.5V8.75ZM4.5 12.5H6C6.79565 12.5 7.55871 12.1839 8.12132 11.6213C8.68393 11.0587 9 10.2956 9 9.5V8H18V9.5C18 10.2956 18.3161 11.0587 18.8787 11.6213C19.4413 12.1839 20.2044 12.5 21 12.5H22.5V15.5H21C20.2044 15.5 19.4413 15.8161 18.8787 16.3787C18.3161 16.9413 18 17.7044 18 18.5V20H9V18.5C9 17.7044 8.68393 16.9413 8.12132 16.3787C7.55871 15.8161 6.79565 15.5 6 15.5H4.5V12.5ZM19.5 8H21.75C21.9489 8 22.1397 8.07902 22.2803 8.21967C22.421 8.36032 22.5 8.55109 22.5 8.75V11H21C20.6022 11 20.2206 10.842 19.9393 10.5607C19.658 10.2794 19.5 9.89782 19.5 9.5V8ZM22.5 17V19.25C22.5 19.4489 22.421 19.6397 22.2803 19.7803C22.1397 19.921 21.9489 20 21.75 20H19.5V18.5C19.5 18.1022 19.658 17.7206 19.9393 17.4393C20.2206 17.158 20.6022 17 21 17H22.5ZM7.5 20H5.25C5.05109 20 4.86032 19.921 4.71967 19.7803C4.57902 19.6397 4.5 19.4489 4.5 19.25V17H6C6.39782 17 6.77936 17.158 7.06066 17.4393C7.34196 17.7206 7.5 18.1022 7.5 18.5V20ZM25.5 19.25C25.5 20.2446 25.1049 21.1984 24.4016 21.9017C23.6984 22.6049 22.7446 23 21.75 23H6.1275C6.28266 23.4389 6.57012 23.8188 6.95026 24.0875C7.3304 24.3561 7.78451 24.5002 8.25 24.5H21.75C23.1424 24.5 24.4777 23.9469 25.4623 22.9623C26.4469 21.9777 27 20.6424 27 19.25V11.75C27.0002 11.2845 26.8561 10.8304 26.5875 10.4503C26.3188 10.0701 25.9389 9.78266 25.5 9.6275V19.25Z" fill="#222751"/>
</g>
</svg>
