<svg width="31" height="30" viewBox="0 0 31 30" fill="none" xmlns="http://www.w3.org/2000/svg">
<g id="game-icons:take-my-money">
<path id="Vector" d="M13.7313 1.8935C13.4996 1.89268 13.2672 1.89292 13.0341 1.89391C11.9122 1.89913 10.7724 1.9286 9.6228 1.97126L9.95538 3.42983C11.1525 3.29448 12.465 3.1937 13.7773 3.14331C14.4883 3.116 15.1949 3.10159 15.8803 3.10522C17.9367 3.11594 19.8024 3.28862 21.0231 3.76159L21.545 3.96397L21.312 4.47286C19.6092 8.19268 19.2154 11.7814 19.4823 15.3025C19.614 11.1237 21.351 7.407 23.6313 2.64227C20.5284 2.12665 17.2074 1.90505 13.7313 1.89344V1.8935ZM15.374 4.16635C14.8618 4.16676 14.3398 4.17714 13.8178 4.19717C11.376 4.29092 8.94282 4.57745 7.35698 4.90592C9.12845 8.1918 10.5615 11.4852 11.4868 14.6959C11.6019 14.692 11.7172 14.6929 11.8322 14.6985C12.0676 14.7101 12.3005 14.742 12.528 14.7917C11.5861 11.7801 10.5133 9.00262 9.1796 6.22932L8.87825 5.60272L9.56298 5.48155C11.2831 5.17698 13.0584 5.05909 14.7482 5.05856C14.8608 5.05856 14.9732 5.05897 15.085 5.05997C16.1586 5.06934 17.1934 5.12489 18.1521 5.2085L18.7998 5.26505L18.6109 5.88713C17.5152 9.49434 17.3006 13.3683 17.9201 17.054C17.9304 17.0636 17.9408 17.0731 17.9509 17.0828C18.1743 17.0045 18.3833 16.9247 18.5782 16.8394C18.0945 12.8905 18.3088 8.81653 20.115 4.58149C19.1071 4.32467 17.5706 4.19044 15.8823 4.16934C15.7128 4.16725 15.5434 4.16621 15.374 4.16635ZM23.8668 4.59907C22.053 8.44024 20.7647 11.5184 20.5535 14.8414C21.7276 10.9273 23.997 7.41848 26.5831 5.16421C25.6854 4.9403 24.7793 4.75177 23.8668 4.59907ZM6.58396 5.68475C5.48474 5.91139 4.41095 6.19909 3.37231 6.59659C3.87774 7.03487 4.79146 7.8502 5.90005 8.93383C6.41028 8.40866 6.93065 7.88981 7.47341 7.41801C7.18594 6.83568 6.88942 6.25785 6.58396 5.68475ZM14.9056 6.12315C14.1076 6.11928 13.2907 6.14213 12.4708 6.19891C12.3848 7.00059 11.9107 7.75059 11.3443 8.48817C12.2485 10.625 13.0294 12.8055 13.7324 15.1206C14.8091 15.4382 15.8742 15.8136 16.7371 16.2634C16.4166 13.7757 16.4604 11.2265 16.8765 8.73368C16.1216 7.95379 15.7283 7.08778 15.6967 6.13563C15.4331 6.12861 15.1694 6.12445 14.9056 6.12315ZM25.5707 7.7043C24.1217 9.4211 22.8449 11.5713 21.9748 13.9101C23.5723 11.6377 25.5367 9.86524 27.6278 8.61321C26.9465 8.30028 26.2608 7.99728 25.5707 7.7043ZM7.94925 8.40503C7.09413 9.17776 6.24921 10.1052 5.36931 10.9888C7.26124 12.1133 8.87269 13.445 10.1872 14.9533C10.2689 14.9225 10.3513 14.8948 10.4342 14.8695C9.81909 12.7545 8.9761 10.5902 7.94925 8.40503ZM21.6243 15.7147C20.6635 16.8742 19.759 17.4863 18.5135 17.9747C18.6536 18.5149 18.4456 19.1351 17.9666 19.6095C17.6849 19.8885 17.3309 20.2064 16.8133 20.4131C16.8879 20.4573 16.9642 20.4989 17.0418 20.5377C17.7662 20.8993 19.0461 20.7827 20.2351 20.2419C21.4205 19.7028 22.4794 18.7717 22.8718 17.8284C23.0685 17.2981 22.9281 17.0215 22.5837 16.6159C22.3386 16.3274 21.9805 16.0365 21.6243 15.7148V15.7147ZM11.6587 15.749C11.0309 15.7433 10.3933 15.9245 9.86632 16.3209C9.1169 16.8848 8.53917 17.8903 8.53401 19.5983V19.61L8.53343 19.6217C8.36233 23.2183 8.62718 24.8776 9.15189 25.7779C9.61501 26.5725 10.3853 26.9529 11.512 27.6525C11.5657 27.5116 11.6216 27.3382 11.6741 27.1195C11.8075 26.5629 11.9179 25.7985 11.9878 24.953C12.1278 23.2621 12.1074 21.2317 11.8733 19.7706L11.7496 18.9978L12.5122 19.1733C14.3647 19.5994 15.4243 19.6497 16.0396 19.5412C16.6549 19.4326 16.8635 19.2176 17.2244 18.8601C17.5637 18.5243 17.5573 18.4034 17.4855 18.2144C17.4136 18.0253 17.1252 17.7137 16.6359 17.4156C15.6572 16.8193 13.9942 16.2665 12.4398 15.8542C12.1848 15.7867 11.9224 15.7514 11.6587 15.749ZM22.7388 19.8164C22.1521 20.3879 21.4301 20.8571 20.6718 21.202C19.4423 21.7611 18.09 22.0168 16.968 21.6445C16.5719 21.7919 16.3418 21.9613 16.2257 22.1015C16.0665 22.294 16.0565 22.4355 16.1105 22.6383C16.1644 22.841 16.3252 23.0817 16.5241 23.2549C16.7229 23.4281 16.9592 23.5181 17.049 23.5223C19.7909 23.6525 20.9775 22.8657 22.4559 21.953C22.887 21.6869 23.052 21.1478 23.0107 20.6094C22.99 20.3402 22.9117 20.0873 22.8213 19.928C22.7988 19.8873 22.7711 19.8498 22.7388 19.8164ZM13.0013 20.3494C13.161 21.8182 13.1637 23.5318 13.0389 25.04C12.9658 25.9231 12.8528 26.7262 12.6997 27.3653C12.6331 27.6433 12.5598 27.8899 12.4712 28.107L21.0667 27.7282C20.9697 27.3679 20.8708 27.0061 20.7719 26.6441C20.4417 26.754 20.1041 26.8406 19.7617 26.9033L19.7643 26.9461L19.2771 26.9764C18.977 27.0124 18.6646 27.0323 18.3406 27.0346L13.4269 27.3398L13.573 26.6597C14.0386 24.4914 14.0816 22.5823 13.7943 20.4937C13.529 20.4507 13.2646 20.4026 13.0012 20.3494H13.0013ZM14.8746 20.6238C15.1059 22.4949 15.0781 24.2806 14.7336 26.2019L15.8624 26.1319C15.6854 25.8707 15.5637 25.576 15.505 25.266C15.429 24.8628 15.4713 24.4141 15.735 24.0431C15.7467 24.0266 15.7593 24.0109 15.7717 23.995C15.4644 23.7111 15.2076 23.3468 15.0912 22.9096C14.9674 22.4441 15.0447 21.8743 15.4133 21.429C15.5351 21.2819 15.6824 21.1491 15.8553 21.0296C15.7024 20.9077 15.5683 20.7785 15.4525 20.6439C15.273 20.6451 15.0808 20.6385 14.8746 20.6238ZM22.648 23.0722C21.2736 23.9073 19.7295 24.7055 16.999 24.5759C16.9099 24.5715 16.8213 24.5595 16.7343 24.5399C16.662 24.5723 16.6235 24.6135 16.5947 24.6539C16.5383 24.7333 16.5049 24.8766 16.5414 25.0707C16.6146 25.459 16.9824 25.8845 17.3248 25.9244C19.7497 26.2064 21.4252 25.4131 22.4425 24.4902C22.9112 24.0649 22.9152 23.7929 22.8462 23.497C22.8116 23.3491 22.7354 23.2058 22.648 23.0722ZM22.2564 25.9469C22.0937 26.0489 21.9266 26.1439 21.7556 26.2316C21.8523 26.5862 21.9492 26.9407 22.0449 27.2954L23.2121 27.0861C22.9109 26.829 22.6753 26.5614 22.4861 26.2953C22.4016 26.1764 22.3272 26.0608 22.2564 25.9469Z" fill="#222751"/>
</g>
</svg>
