<svg width="24" height="24" viewBox="0 0 24 24" fill="none" xmlns="http://www.w3.org/2000/svg">
<g id="guidance:bank" clip-path="url(#clip0_12_1171)">
<path id="Vector" d="M21.5 9V19M5.5 9V19M2.5 9V19M18.5 9V19M2 21H22M0 23.5H24M12 11H11C10.7348 11 10.4804 11.1054 10.2929 11.2929C10.1054 11.4804 10 11.7348 10 12V12.375C10 12.5914 10.0702 12.8019 10.2 12.975C10.3298 13.1481 10.5123 13.2744 10.72 13.335L13.28 14.082C13.4877 14.1426 13.6702 14.2689 13.8 14.442C13.9298 14.6151 14 14.8256 14 15.042V16C14 16.2652 13.8946 16.5196 13.7071 16.7071C13.5196 16.8946 13.2652 17 13 17H12M12 11H13C13.2652 11 13.5196 11.1054 13.7071 11.2929C13.8946 11.4804 14 11.7348 14 12V12.5M12 11V9M12 17H11C10.7348 17 10.4804 16.8946 10.2929 16.7071C10.1054 16.5196 10 16.2652 10 16V15.5M12 17V19M23.5 6.25V7H0.5V6.25C5.5 4.5 8.5 3 11.75 0.5H12.25C15.5 3 18.5 4.5 23.5 6.25Z" stroke="#222751"/>
</g>
<defs>
<clipPath id="clip0_12_1171">
<rect width="24" height="24" fill="white"/>
</clipPath>
</defs>
</svg>
