<svg width="26" height="26" viewBox="0 0 26 26" fill="none" xmlns="http://www.w3.org/2000/svg">
<g id="system-uicons:coins">
<g id="Group">
<path id="Vector" d="M22.9049 14.2381V17.9524C22.9049 19.5619 19.0247 21.6667 14.2382 21.6667C9.45172 21.6667 5.57153 19.5619 5.57153 17.9524V14.8571" stroke="#222751" stroke-linecap="round" stroke-linejoin="round"/>
<path id="Vector_2" d="M5.93555 15.1778C7.0065 16.5992 10.3184 17.9326 14.2382 17.9326C19.0247 17.9326 22.9049 15.9442 22.9049 14.2356C22.9049 13.2761 21.6829 12.225 19.7651 11.4871" stroke="#222751" stroke-linecap="round" stroke-linejoin="round"/>
<path id="Vector_3" d="M19.1905 8.04764V11.7619C19.1905 13.3714 15.3103 15.4762 10.5238 15.4762C5.73737 15.4762 1.85718 13.3714 1.85718 11.7619V8.04764" stroke="#222751" stroke-linecap="round" stroke-linejoin="round"/>
<path id="Vector_4" fill-rule="evenodd" clip-rule="evenodd" d="M10.5238 11.7421C15.3103 11.7421 19.1905 9.75372 19.1905 8.04515C19.1905 6.33534 15.3103 4.33334 10.5238 4.33334C5.73737 4.33334 1.85718 6.33534 1.85718 8.04515C1.85718 9.75372 5.73737 11.7421 10.5238 11.7421Z" stroke="#222751" stroke-linecap="round" stroke-linejoin="round"/>
</g>
</g>
</svg>
