<svg width="30" height="30" viewBox="0 0 30 30" fill="none" xmlns="http://www.w3.org/2000/svg">
<g id="US">
<ellipse id="Oval" cx="15.2641" cy="15.2872" rx="14.686" ry="14.7099" fill="#F4F4F4"/>
<mask id="mask0_156_73" style="mask-type:luminance" maskUnits="userSpaceOnUse" x="0" y="0" width="30" height="30">
<ellipse id="Oval_2" cx="15.2641" cy="15.2872" rx="14.686" ry="14.7099" fill="white"/>
</mask>
<g mask="url(#mask0_156_73)">
<path id="Path" fill-rule="evenodd" clip-rule="evenodd" d="M13.245 23.2066H2.89136C3.40865 24.0177 4.00487 24.7756 4.6713 25.469H25.8544C26.5208 24.7756 27.117 24.0177 27.6343 23.2066H13.242H13.245Z" fill="#FF1612"/>
<path id="Path_2" fill-rule="evenodd" clip-rule="evenodd" d="M23.0847 2.83932C18.3041 -0.173899 12.2218 -0.173899 7.44116 2.83932H23.0847Z" fill="#FF1612"/>
<path id="Path_3" fill-rule="evenodd" clip-rule="evenodd" d="M23.4194 5.10168H4.6713C4.0057 5.79688 3.40955 6.5556 2.89136 7.367H27.6343C27.1161 6.5556 26.52 5.79688 25.8544 5.10168L23.4194 5.10168Z" fill="#FF1612"/>
<path id="Path_4" fill-rule="evenodd" clip-rule="evenodd" d="M13.245 9.62939H1.70475C1.40041 10.3625 1.15582 11.1191 0.973389 11.8918H29.5523C29.3699 11.1191 29.1253 10.3625 28.821 9.62939H13.2538L13.245 9.62939Z" fill="#FF1612"/>
<path id="Path_5" fill-rule="evenodd" clip-rule="evenodd" d="M13.245 18.6818H0.973389C1.15582 19.4545 1.40041 20.2111 1.70475 20.9442H28.821C29.1253 20.2111 29.3699 19.4545 29.5523 18.6818H13.245V18.6818Z" fill="#FF1612"/>
<path id="Path_6" fill-rule="evenodd" clip-rule="evenodd" d="M7.43823 27.7313C9.77109 29.2083 12.4737 29.9937 15.2336 29.9966H15.2923C18.0521 29.9937 20.7548 29.2083 23.0876 27.7313H7.43823Z" fill="#FF1612"/>
<path id="Path_7" fill-rule="evenodd" clip-rule="evenodd" d="M13.245 14.1541H0.623899C0.597465 14.5277 0.576904 14.9043 0.576904 15.2868C0.576904 15.6692 0.597465 16.0429 0.623899 16.4165H29.9019C29.9283 16.0429 29.9489 15.6663 29.9489 15.2868C29.9489 14.9073 29.9283 14.5277 29.9019 14.1541H13.245Z" fill="#FF1612"/>
<path id="Path_8" fill-rule="evenodd" clip-rule="evenodd" d="M9.84076 1.61546L9.98762 1.55956C9.96706 1.4919 9.94357 1.42718 9.92301 1.36245C9.89657 1.45954 9.87014 1.53014 9.84076 1.61546Z" fill="#F4F4F4"/>
<path id="Shape" fill-rule="evenodd" clip-rule="evenodd" d="M14.2026 16.4165H15.5038V0.576919H15.2629C13.4551 0.574334 11.6625 0.907505 9.97594 1.55954L10.0141 1.67427C10.0187 1.6894 10.0242 1.71501 10.0307 1.74537C10.0495 1.83316 10.0769 1.96065 10.114 1.98907C10.1502 2.01681 10.2745 2.0043 10.3636 1.99534C10.3973 1.99195 10.426 1.98907 10.443 1.98907H10.7719L10.5046 2.18324C10.4916 2.19245 10.4686 2.20587 10.4413 2.22177C10.364 2.2668 10.2525 2.33175 10.2374 2.37741C10.2229 2.4208 10.2708 2.52807 10.3067 2.60846C10.3219 2.64251 10.3349 2.67175 10.3402 2.68925L10.3613 2.75265C10.3894 2.83657 10.4171 2.91937 10.443 3.00405L10.1786 2.80988C10.1661 2.80031 10.1472 2.78339 10.1249 2.76339L10.1248 2.76338C10.0578 2.7034 9.95978 2.61571 9.91133 2.61571C9.8633 2.61571 9.76822 2.70183 9.70206 2.76177L9.70204 2.76178C9.67919 2.78248 9.6598 2.80006 9.64698 2.80988L9.3885 3.0011L9.49131 2.68631C9.49658 2.67121 9.50708 2.6472 9.51948 2.61885C9.55539 2.53672 9.60721 2.4182 9.59411 2.37446C9.58108 2.33096 9.46848 2.26493 9.3905 2.2192C9.36302 2.20309 9.33983 2.18949 9.32682 2.18029L9.05954 1.98612H9.3885C9.40545 1.98612 9.43413 1.98879 9.46786 1.99192C9.55695 2.00019 9.68125 2.01173 9.71747 1.98612C9.75272 1.9612 9.77918 1.84392 9.79893 1.7564L9.79893 1.75639L9.79894 1.75635L9.79895 1.75631L9.79897 1.75622C9.80719 1.71983 9.81423 1.68861 9.82027 1.67133L9.8379 1.61249C6.77542 2.83646 4.21079 5.05309 2.55364 7.90831L2.58007 7.98774C2.5861 8.00499 2.59288 8.03587 2.60079 8.07188C2.61987 8.15876 2.6455 8.2755 2.68288 8.30253C2.72118 8.33024 2.84274 8.3178 2.93026 8.30884C2.96355 8.30544 2.99191 8.30253 3.00891 8.30253H3.34081L3.07646 8.4967C3.06156 8.50811 3.03359 8.5245 3.00113 8.54352C2.92479 8.58824 2.8236 8.64753 2.80918 8.69088C2.79393 8.73668 2.84649 8.85362 2.88307 8.93502C2.89584 8.96343 2.90666 8.9875 2.91198 9.00272C2.93781 9.08739 2.96551 9.17017 2.99359 9.25408L3.01478 9.31751L2.74749 9.12334C2.73473 9.11357 2.71525 9.0961 2.69229 9.07552C2.62543 9.01557 2.52906 8.92917 2.48315 8.92917C2.43679 8.92917 2.33736 9.01723 2.26961 9.07723C2.24721 9.09707 2.22827 9.11384 2.21586 9.12334L1.95151 9.31751C1.97732 9.23291 2.00501 9.15018 2.03307 9.06633L2.03307 9.06632L2.03309 9.06627L2.03311 9.06621L2.03313 9.06616L2.05432 9.00272C2.05946 8.98556 2.07184 8.95689 2.0863 8.92343C2.12141 8.84214 2.16874 8.73255 2.15418 8.69088V8.67322C1.47682 10.0137 1.00924 11.4504 0.767822 12.9332C0.775493 12.9776 0.794745 13.0192 0.823629 13.0538C0.859847 13.0816 0.984148 13.0691 1.07324 13.0601C1.10697 13.0567 1.13565 13.0538 1.1526 13.0538H1.48156L1.48146 13.0539L1.48145 13.0539C1.39337 13.1186 1.30529 13.1833 1.21428 13.245C1.18846 13.2626 1.15745 13.281 1.12586 13.2998C1.04605 13.3474 0.962555 13.3971 0.949929 13.4392C0.937701 13.48 0.982037 13.586 1.01622 13.6677C1.0313 13.7038 1.0444 13.7351 1.04979 13.754C1.05913 13.7867 1.07837 13.8434 1.09919 13.9048L1.0992 13.9048C1.11768 13.9593 1.13741 14.0175 1.1526 14.0659L0.888247 13.8717C0.81739 13.8076 0.742854 13.7476 0.66502 13.6922C0.607952 14.2218 0.57854 14.7541 0.576904 15.2868C0.576904 15.6663 0.597465 16.0429 0.623899 16.4165H14.2026ZM13.1129 2.00083C13.1298 2.00083 13.1596 2.0035 13.1946 2.00663C13.2872 2.0149 13.4163 2.02644 13.4418 2.00083C13.4663 1.9763 13.4965 1.86227 13.5195 1.77523L13.5195 1.77518C13.5296 1.73698 13.5384 1.70399 13.5446 1.68604L13.6445 1.37419L13.7444 1.68604C13.7504 1.70328 13.7572 1.73417 13.7651 1.77018C13.7842 1.85706 13.8098 1.97379 13.8472 2.00083C13.8855 2.02857 14.0089 2.01607 14.0973 2.00711C14.1307 2.00372 14.1592 2.00083 14.1761 2.00083H14.5051L14.2378 2.195C14.2248 2.20422 14.2018 2.21763 14.1745 2.23354C14.0972 2.27857 13.9857 2.34351 13.9705 2.38917C13.9561 2.43257 14.004 2.53984 14.0398 2.62023C14.055 2.65428 14.0681 2.68351 14.0733 2.70102L14.1761 3.01581L13.9089 2.82164C13.8961 2.81187 13.8766 2.7944 13.8536 2.77381C13.7868 2.71387 13.6904 2.62747 13.6445 2.62747C13.5982 2.62747 13.4987 2.71553 13.431 2.77552C13.4086 2.79537 13.3896 2.81214 13.3772 2.82164L13.1129 3.01581L13.2069 2.68631C13.2121 2.66866 13.2251 2.63884 13.2402 2.60415C13.2753 2.52317 13.322 2.41565 13.3097 2.37446C13.2966 2.33096 13.184 2.26493 13.1061 2.2192C13.0786 2.20309 13.0554 2.18949 13.0424 2.18029L12.7751 1.98612L13.1129 2.00083ZM13.1946 5.16385C13.1596 5.16045 13.1298 5.15757 13.1129 5.15757H12.7839L13.0512 5.35174C13.0646 5.36123 13.0889 5.37498 13.1175 5.39121C13.1954 5.43533 13.3056 5.4978 13.3185 5.54297C13.3309 5.58644 13.2836 5.69549 13.2484 5.77679L13.2484 5.7768C13.2336 5.81102 13.2209 5.84033 13.2157 5.85776C13.1981 5.90924 13.1812 5.96146 13.1643 6.01368L13.1642 6.01383C13.1474 6.066 13.1305 6.11817 13.1129 6.16961L13.3772 5.97544C13.3915 5.96536 13.4144 5.94521 13.4412 5.92156L13.4412 5.92153C13.5084 5.86234 13.6004 5.78127 13.6445 5.78127C13.6882 5.78127 13.7778 5.86117 13.844 5.92023C13.8711 5.94445 13.8943 5.96517 13.9089 5.97544L14.1761 6.16961C14.1585 6.11817 14.1417 6.066 14.1248 6.01383L14.1247 6.01368C14.1078 5.96146 14.091 5.90924 14.0733 5.85776C14.0681 5.84038 14.0552 5.81094 14.0402 5.77657L14.0402 5.77655L14.0402 5.77654C14.0043 5.69453 13.956 5.58442 13.9705 5.54297C13.9856 5.49991 14.095 5.43639 14.1721 5.39157L14.1722 5.39156L14.1722 5.39155L14.1722 5.39154C14.2005 5.37511 14.2244 5.3612 14.2378 5.35174L14.5051 5.15757H14.1761C14.1592 5.15757 14.1307 5.16023 14.0973 5.16336C14.0089 5.17163 13.8855 5.18318 13.8472 5.15757C13.8097 5.13255 13.784 5.01589 13.7649 4.92911C13.7571 4.89346 13.7504 4.86285 13.7444 4.84572C13.7282 4.79276 13.7113 4.74054 13.6944 4.68832C13.6775 4.6361 13.6607 4.58388 13.6445 4.53093C13.6284 4.58388 13.6115 4.6361 13.5946 4.68832C13.5777 4.74054 13.5608 4.79276 13.5446 4.84572C13.5384 4.86355 13.5298 4.89569 13.5197 4.9329L13.5197 4.93291L13.5197 4.93294C13.4967 5.01853 13.4664 5.13091 13.4418 5.15757C13.4163 5.18531 13.2872 5.17281 13.1946 5.16385ZM13.1129 8.31724C13.1298 8.31724 13.1596 8.32013 13.1946 8.32352C13.2872 8.33248 13.4163 8.34499 13.4418 8.31724C13.4663 8.2907 13.4964 8.17774 13.5194 8.09142L13.5194 8.09139C13.5296 8.05334 13.5384 8.02046 13.5446 8.00245L13.6445 7.6906L13.7444 8.00245C13.7504 8.01969 13.7572 8.05057 13.7651 8.08658L13.7651 8.08659C13.7842 8.17347 13.8098 8.29021 13.8472 8.31724C13.8855 8.34499 14.0089 8.33248 14.0973 8.32352C14.1307 8.32013 14.1592 8.31724 14.1761 8.31724H14.5051L14.2378 8.51141C14.2229 8.52283 14.195 8.53921 14.1625 8.55823L14.1625 8.55824C14.0861 8.60296 13.985 8.66224 13.9705 8.70558C13.9561 8.74898 14.004 8.85625 14.0398 8.93664C14.055 8.97069 14.0681 8.99992 14.0733 9.01743L14.1761 9.33222L13.9089 9.13805C13.8961 9.12828 13.8766 9.11083 13.8537 9.09026L13.8537 9.09024L13.8536 9.09023C13.7868 9.03028 13.6904 8.94388 13.6445 8.94388C13.5982 8.94388 13.4987 9.03194 13.431 9.09194L13.431 9.09195C13.4086 9.11178 13.3896 9.12855 13.3772 9.13805L13.1129 9.33222L13.2069 9.00272C13.2121 8.98509 13.2251 8.95531 13.2401 8.92066L13.2401 8.92062L13.2401 8.92059L13.2402 8.92056C13.2753 8.83958 13.322 8.73207 13.3097 8.69088C13.2973 8.64962 13.1955 8.58958 13.1185 8.54418C13.0856 8.52483 13.0573 8.50814 13.0424 8.4967L12.7751 8.30253L13.1129 8.31724ZM13.1946 11.4803C13.1596 11.4769 13.1298 11.474 13.1129 11.474L12.7839 11.4622L13.0512 11.6681C13.0646 11.6776 13.0889 11.6914 13.1175 11.7076C13.1954 11.7517 13.3056 11.8142 13.3185 11.8594C13.3306 11.9018 13.2943 11.9857 13.2589 12.0675C13.2427 12.1049 13.2267 12.1418 13.2157 12.1742C13.1981 12.2257 13.1812 12.2779 13.1643 12.3301C13.1474 12.3823 13.1305 12.4345 13.1129 12.486L13.3772 12.2918C13.3915 12.2818 13.4144 12.2616 13.4412 12.2379C13.5084 12.1788 13.6004 12.0977 13.6445 12.0977C13.6882 12.0977 13.7778 12.1776 13.844 12.2366L13.844 12.2366L13.844 12.2367C13.8711 12.2609 13.8943 12.2816 13.9089 12.2918L14.1761 12.486C14.1409 12.383 14.091 12.233 14.0733 12.1742C14.0681 12.1568 14.0552 12.1273 14.0402 12.093C14.0043 12.0109 13.956 11.9008 13.9705 11.8594C13.9856 11.8163 14.095 11.7528 14.1721 11.708C14.2005 11.6915 14.2244 11.6776 14.2378 11.6681L14.5051 11.474H14.1761C14.1592 11.474 14.1308 11.4766 14.0973 11.4798L14.0973 11.4798C14.0089 11.488 13.8855 11.4996 13.8472 11.474C13.8097 11.449 13.784 11.3323 13.7649 11.2455L13.7649 11.2455C13.7571 11.2099 13.7504 11.1793 13.7444 11.1621C13.7282 11.1092 13.7114 11.0571 13.6945 11.0049L13.6944 11.0047L13.6944 11.0045C13.6775 10.9524 13.6606 10.9002 13.6445 10.8473C13.6284 10.9002 13.6115 10.9524 13.5946 11.0045L13.5946 11.0047L13.5945 11.0049C13.5776 11.0571 13.5608 11.1092 13.5446 11.1621C13.5384 11.1799 13.5298 11.2121 13.5198 11.2492L13.5197 11.2493L13.5197 11.2493C13.4967 11.3349 13.4664 11.4473 13.4418 11.474C13.4163 11.5017 13.2872 11.4892 13.1946 11.4803ZM13.1129 14.6337C13.1298 14.6337 13.1596 14.6365 13.1946 14.6399C13.2872 14.6489 13.4163 14.6614 13.4418 14.6337C13.4663 14.6071 13.4964 14.4942 13.5194 14.4078L13.5194 14.4078L13.5194 14.4078L13.5195 14.4077L13.5195 14.4076L13.5195 14.4074L13.5195 14.4074L13.5196 14.4073C13.5297 14.3695 13.5384 14.3368 13.5446 14.3189L13.6445 14.007L13.7444 14.3189C13.7504 14.3361 13.7572 14.367 13.7651 14.403C13.7842 14.4899 13.8098 14.6066 13.8472 14.6337C13.8855 14.6614 14.0089 14.6489 14.0973 14.6399C14.1307 14.6365 14.1592 14.6337 14.1761 14.6337H14.5051L14.2378 14.8249C14.2229 14.8363 14.195 14.8527 14.1625 14.8717L14.1625 14.8717C14.0861 14.9164 13.985 14.9757 13.9705 15.0191C13.9561 15.0625 14.004 15.1697 14.0398 15.2501C14.055 15.2842 14.0681 15.3134 14.0733 15.3309L14.1761 15.6457L13.9089 15.4515C13.8961 15.4417 13.8766 15.4243 13.8536 15.4037C13.7868 15.3437 13.6904 15.2574 13.6445 15.2574C13.5982 15.2574 13.4987 15.3454 13.431 15.4054L13.431 15.4054C13.4086 15.4253 13.3896 15.442 13.3772 15.4515L13.1129 15.6457L13.2069 15.3191C13.2121 15.3015 13.2251 15.2717 13.2401 15.2371L13.2401 15.237L13.2402 15.237C13.2753 15.156 13.322 15.0485 13.3097 15.0073C13.2973 14.966 13.1954 14.906 13.1185 14.8606C13.0856 14.8412 13.0573 14.8245 13.0424 14.8131L12.7751 14.6219L13.1129 14.6337ZM11.3325 3.57224C11.299 3.56885 11.2706 3.56596 11.2536 3.56596L10.9247 3.56008L11.189 3.75425C11.2019 3.76286 11.2232 3.77498 11.2483 3.78928C11.3262 3.83357 11.4407 3.89877 11.4563 3.94548C11.4716 3.99152 11.4184 4.11108 11.3818 4.19337L11.3818 4.19339L11.3818 4.19348L11.3817 4.19361C11.3692 4.22164 11.3587 4.24532 11.3535 4.26027L11.2536 4.57212L11.518 4.37795C11.5322 4.36786 11.5551 4.34771 11.582 4.32405L11.582 4.32404C11.6492 4.26485 11.7412 4.18378 11.7853 4.18378C11.829 4.18378 11.9185 4.26368 11.9847 4.32274C12.0119 4.34696 12.0351 4.36768 12.0496 4.37795L12.3169 4.57212C12.2816 4.46915 12.2464 4.36324 12.2141 4.26027C12.2089 4.24542 12.1987 4.22177 12.1865 4.19375C12.1506 4.11075 12.0981 3.98947 12.1113 3.94548C12.1246 3.90093 12.2407 3.83446 12.3192 3.78948L12.3192 3.78947L12.3193 3.78944L12.3193 3.78944C12.3444 3.77502 12.3657 3.76282 12.3786 3.75425L12.6429 3.56008H12.314C12.297 3.56008 12.2683 3.56296 12.2346 3.56636C12.1455 3.57532 12.0212 3.58782 11.985 3.56008C11.9479 3.53166 11.9205 3.40417 11.9017 3.31638C11.8952 3.28602 11.8897 3.26041 11.8851 3.24529C11.8499 3.13938 11.8176 3.03641 11.7853 2.9305L11.6825 3.25117C11.6779 3.26636 11.6726 3.29215 11.6663 3.3227L11.6662 3.32273C11.6481 3.4105 11.6218 3.5376 11.5826 3.56596C11.5442 3.5937 11.4209 3.5812 11.3325 3.57224ZM11.2536 6.72564C11.2706 6.72564 11.299 6.72852 11.3325 6.73192C11.4209 6.74088 11.5442 6.75338 11.5826 6.72564C11.6219 6.6972 11.6482 6.57115 11.6664 6.48419C11.6726 6.45421 11.6779 6.42887 11.6825 6.41379L11.7853 6.099C11.8176 6.20491 11.8499 6.30788 11.8851 6.41379C11.8896 6.42879 11.8951 6.45411 11.9015 6.4841L11.9015 6.48419L11.9015 6.4842C11.9204 6.57186 11.9478 6.69934 11.985 6.72564C12.0212 6.75125 12.1455 6.7397 12.2346 6.73143C12.2683 6.7283 12.297 6.72564 12.314 6.72564H12.6429L12.3786 6.91687C12.3639 6.92748 12.3381 6.94263 12.3082 6.96024C12.2303 7.00607 12.124 7.06853 12.1113 7.11104C12.0982 7.15477 12.15 7.27326 12.1859 7.35538L12.1859 7.35539L12.1859 7.35541L12.1859 7.35542C12.1983 7.38377 12.2088 7.40778 12.2141 7.42288C12.2399 7.50756 12.2676 7.59035 12.2957 7.67427L12.3169 7.73768L12.0496 7.54351C12.0368 7.53373 12.0174 7.51627 11.9944 7.49569L11.9944 7.49568C11.9275 7.43573 11.8312 7.34934 11.7853 7.34934C11.7389 7.34934 11.6395 7.43739 11.5717 7.49739L11.5717 7.49741C11.5493 7.51724 11.5304 7.534 11.518 7.54351L11.2536 7.73768C11.2698 7.68481 11.2866 7.63267 11.3035 7.58054L11.3035 7.58043L11.3036 7.58028C11.3204 7.52806 11.3373 7.47584 11.3535 7.42288C11.3588 7.40767 11.3696 7.38359 11.3824 7.35519L11.3824 7.35518C11.419 7.27377 11.4715 7.15684 11.4563 7.11104C11.4414 7.06641 11.3362 7.0049 11.2589 6.95976C11.2292 6.94241 11.2037 6.92748 11.189 6.91687L10.9247 6.72564H11.2536ZM11.3325 9.89111L11.3325 9.89111C11.299 9.88798 11.2706 9.88531 11.2536 9.88531H10.9247L11.189 10.0795C11.2012 10.0876 11.2209 10.0992 11.2442 10.1129C11.3221 10.1587 11.4405 10.2284 11.4563 10.2737C11.4715 10.3173 11.4189 10.4355 11.3823 10.5176C11.3696 10.5461 11.3588 10.5703 11.3535 10.5855C11.3374 10.6384 11.3205 10.6905 11.3036 10.7427L11.3036 10.7429L11.3035 10.7431C11.2866 10.7953 11.2698 10.8474 11.2536 10.9003L11.518 10.7061C11.5304 10.6966 11.5493 10.6798 11.5717 10.66C11.6395 10.6 11.7389 10.512 11.7853 10.512C11.8312 10.512 11.9275 10.5984 11.9944 10.6583C12.0174 10.6789 12.0368 10.6963 12.0496 10.7061L12.3169 10.9003L12.2957 10.8369C12.2676 10.753 12.2399 10.6702 12.2141 10.5855C12.2088 10.5704 12.1983 10.5465 12.1859 10.5184L12.1858 10.5183L12.1858 10.5183C12.1499 10.4368 12.0982 10.3195 12.1113 10.2737C12.1248 10.2265 12.2428 10.1587 12.3213 10.1135L12.3213 10.1135L12.3214 10.1135C12.3456 10.0996 12.3661 10.0878 12.3786 10.0795L12.6429 9.88531H12.314C12.297 9.88531 12.2683 9.8882 12.2346 9.89159C12.1455 9.90055 12.0212 9.91306 11.985 9.88531C11.9479 9.8569 11.9205 9.7294 11.9017 9.64162C11.8952 9.61126 11.8897 9.58564 11.8851 9.57052C11.8499 9.46461 11.8176 9.36164 11.7853 9.25573L11.6825 9.57052C11.6779 9.58573 11.6726 9.61175 11.6662 9.64258L11.6662 9.64261C11.6481 9.73107 11.6218 9.85914 11.5826 9.88531C11.5442 9.91092 11.4209 9.89938 11.3325 9.89111ZM11.2536 13.042C11.2706 13.042 11.299 13.0449 11.3325 13.0483C11.4209 13.0573 11.5442 13.0698 11.5826 13.042C11.6219 13.0136 11.6482 12.8876 11.6664 12.8006C11.6726 12.7706 11.6779 12.7453 11.6825 12.7302C11.6976 12.6847 11.7122 12.6391 11.7268 12.5938L11.7268 12.5937L11.7268 12.5937L11.7268 12.5936L11.7268 12.5936C11.7461 12.5336 11.7652 12.474 11.7853 12.4154L11.8084 12.4894L11.8084 12.4894C11.8331 12.5688 11.8583 12.6495 11.8851 12.7302C11.8896 12.7452 11.8951 12.7705 11.9015 12.8005L11.9015 12.8006L11.9015 12.8006L11.9015 12.8006L11.9015 12.8006L11.9015 12.8007C11.9204 12.8883 11.9478 13.0158 11.985 13.042C12.0212 13.0677 12.1455 13.0561 12.2346 13.0478C12.2683 13.0447 12.297 13.042 12.314 13.042H12.6429L12.3786 13.2333C12.3639 13.2439 12.3381 13.259 12.3082 13.2767C12.2303 13.3225 12.124 13.3849 12.1113 13.4274C12.0985 13.4702 12.1477 13.5845 12.1835 13.6674C12.1969 13.6986 12.2085 13.7254 12.2141 13.7422C12.2209 13.7628 12.2308 13.793 12.2421 13.8278L12.2424 13.8289L12.2425 13.8291C12.2651 13.8984 12.2936 13.9859 12.3169 14.0541L12.0496 13.8599C12.0351 13.8497 12.0119 13.829 11.9848 13.8048L11.9847 13.8047L11.9847 13.8047C11.9185 13.7456 11.829 13.6657 11.7853 13.6657C11.7412 13.6657 11.6492 13.7468 11.582 13.806C11.5551 13.8297 11.5322 13.8498 11.518 13.8599L11.2536 14.0541L11.3535 13.7422C11.3591 13.7253 11.3709 13.6985 11.3846 13.6673C11.4211 13.5843 11.4712 13.4702 11.4563 13.4274C11.4414 13.3849 11.3361 13.3225 11.2589 13.2766L11.2589 13.2766C11.2292 13.259 11.2037 13.2439 11.189 13.2333L10.9247 13.042H11.2536ZM3.00113 14.854L3.00115 14.854C3.03361 14.835 3.06157 14.8186 3.07646 14.8072L3.34081 14.616H3.01184C2.99485 14.616 2.96649 14.6189 2.9332 14.6223C2.84567 14.6313 2.72412 14.6437 2.68581 14.616C2.64844 14.589 2.6228 14.4722 2.60373 14.3853C2.59582 14.3493 2.58904 14.3185 2.58301 14.3012L2.48315 13.9894C2.46552 14.0408 2.44864 14.0931 2.43175 14.1453C2.41486 14.1975 2.39797 14.2497 2.38034 14.3012C2.37579 14.3164 2.37046 14.3422 2.36413 14.3728C2.34598 14.4605 2.31969 14.5876 2.28048 14.616C2.24213 14.6437 2.11879 14.6312 2.03039 14.6223C1.99692 14.6189 1.96846 14.616 1.95151 14.616H1.62255L1.88983 14.8072C1.90461 14.8186 1.93198 14.835 1.96374 14.8541C2.03932 14.8996 2.1397 14.96 2.15418 15.0014C2.16874 15.0431 2.12141 15.1527 2.0863 15.234C2.07184 15.2674 2.05946 15.2961 2.05432 15.3133L2.03312 15.3767C2.00504 15.4606 1.97734 15.5434 1.95151 15.628L2.21586 15.4339C2.22827 15.4244 2.2472 15.4076 2.2696 15.3878L2.26962 15.3878C2.33736 15.3278 2.43679 15.2397 2.48315 15.2397C2.52906 15.2397 2.62543 15.3261 2.69229 15.386L2.6923 15.3861L2.69234 15.3861L2.69239 15.3861C2.7153 15.4067 2.73475 15.4241 2.74749 15.4339L3.01478 15.628L2.99358 15.5646L2.99356 15.5645L2.99356 15.5645C2.96549 15.4806 2.9378 15.3979 2.91198 15.3133C2.90666 15.298 2.89584 15.274 2.88307 15.2456C2.84649 15.1641 2.79393 15.0472 2.80918 15.0014C2.8236 14.9581 2.92479 14.8988 3.00113 14.854ZM3.07646 11.6505C3.06306 11.66 3.03909 11.6739 3.01079 11.6903C2.93361 11.7351 2.82422 11.7987 2.80918 11.8417C2.79384 11.8856 2.84714 12.0064 2.88375 12.0894C2.89622 12.1177 2.90675 12.1416 2.91198 12.1565C2.92168 12.1843 2.93726 12.2323 2.95472 12.2862C2.97426 12.3464 2.99616 12.414 3.01478 12.4684L2.74749 12.2742C2.73298 12.2639 2.70977 12.2432 2.68265 12.219L2.68262 12.219L2.68262 12.219L2.68261 12.219C2.61642 12.1599 2.52689 12.08 2.48315 12.08C2.43908 12.08 2.34705 12.1611 2.27987 12.2203C2.25301 12.244 2.23012 12.2641 2.21586 12.2742L1.95151 12.4684C1.98382 12.3654 2.01907 12.2595 2.05432 12.1565C2.06505 12.1252 2.08041 12.0894 2.09601 12.0532L2.09602 12.0532L2.09602 12.0532C2.13164 11.9703 2.16848 11.8847 2.15418 11.8417C2.13905 11.7963 2.03013 11.7333 1.95372 11.6891C1.92628 11.6733 1.90303 11.6598 1.88983 11.6505L1.62255 11.4622H1.95151C1.96846 11.4622 1.99692 11.4651 2.03039 11.4685C2.11879 11.4775 2.24213 11.49 2.28048 11.4622C2.31979 11.4338 2.34612 11.3077 2.36427 11.2208C2.37054 11.1908 2.37583 11.1654 2.38034 11.1504L2.48315 10.8356C2.4993 10.8885 2.51619 10.9408 2.53308 10.993L2.53309 10.993C2.54998 11.0452 2.56686 11.0974 2.58301 11.1504C2.589 11.1675 2.59573 11.1981 2.60358 11.2338C2.62267 11.3205 2.64834 11.4372 2.68581 11.4622C2.72412 11.4878 2.84567 11.4763 2.9332 11.468L2.93323 11.468C2.9665 11.4649 2.99485 11.4622 3.01184 11.4622H3.34081L3.07646 11.6505ZM9.46786 5.15208C9.43413 5.14869 9.40544 5.1458 9.3885 5.1458L9.05954 5.15463L9.32682 5.3488C9.34025 5.35829 9.3645 5.37203 9.39313 5.38826L9.39314 5.38826C9.471 5.43239 9.58122 5.49485 9.59411 5.54002C9.60727 5.58617 9.5549 5.70616 9.51897 5.78846L9.51896 5.78848L9.51892 5.78857C9.50677 5.81642 9.4965 5.83994 9.49131 5.85482C9.47368 5.9063 9.45679 5.95852 9.4399 6.01074C9.42302 6.06296 9.40613 6.11518 9.3885 6.16666L9.65579 5.96367C9.67027 5.95343 9.69314 5.93281 9.7199 5.90868L9.71991 5.90867C9.78544 5.84958 9.87426 5.7695 9.92014 5.7695C9.96634 5.7695 10.0576 5.85071 10.1241 5.90991C10.1506 5.93351 10.1732 5.95361 10.1874 5.96367L10.4518 6.15784C10.4195 6.05487 10.3842 5.94896 10.349 5.84599C10.3438 5.82861 10.3309 5.79916 10.3158 5.76477C10.2799 5.68276 10.2317 5.57266 10.2462 5.5312C10.2612 5.48815 10.3706 5.42462 10.4478 5.3798L10.4478 5.37979L10.4478 5.37978L10.4478 5.37977C10.4761 5.36335 10.5001 5.34944 10.5135 5.33997L10.7807 5.1458H10.4518C10.4348 5.1458 10.4061 5.14846 10.3724 5.1516C10.2833 5.15987 10.159 5.17141 10.1228 5.1458C10.0856 5.1195 10.0582 4.99202 10.0393 4.90436C10.0329 4.87433 10.0274 4.84897 10.0229 4.83395L9.92014 4.51916C9.90398 4.57212 9.88709 4.62434 9.8702 4.67656C9.85331 4.72878 9.83643 4.781 9.82027 4.83395C9.81425 4.85117 9.80723 4.88175 9.79905 4.91734C9.77929 5.00338 9.75279 5.11875 9.71747 5.1458C9.68125 5.17354 9.55695 5.16104 9.46786 5.15208ZM9.3885 8.30548C9.40544 8.30548 9.43413 8.30836 9.46786 8.31175C9.55695 8.32071 9.68125 8.33322 9.71747 8.30548C9.7527 8.27849 9.77916 8.16216 9.79891 8.07533C9.80715 8.0391 9.81422 8.00801 9.82027 7.99069L9.92014 7.67884C9.93776 7.73032 9.95465 7.78254 9.97154 7.83476C9.98843 7.88698 10.0053 7.9392 10.0229 7.99069C10.0355 8.02745 10.0455 8.07321 10.0554 8.1186C10.0732 8.20035 10.0907 8.28089 10.1228 8.30548C10.159 8.33322 10.2833 8.32071 10.3724 8.31175C10.4061 8.30836 10.4348 8.30548 10.4518 8.30548H10.7807L10.5135 8.49965C10.4986 8.51105 10.4706 8.52744 10.4381 8.54645L10.4381 8.54646C10.3618 8.59119 10.2606 8.65047 10.2462 8.69382C10.2317 8.73721 10.2796 8.84448 10.3155 8.92487C10.3307 8.95893 10.3437 8.98816 10.349 9.00566L10.3701 9.06908C10.3982 9.153 10.4259 9.23579 10.4518 9.32046L10.1874 9.12629C10.1749 9.11673 10.156 9.09983 10.1337 9.07984L10.1337 9.07982L10.1337 9.0798C10.0666 9.01981 9.9686 8.93212 9.92014 8.93212C9.87211 8.93212 9.77704 9.01824 9.71089 9.07817L9.71088 9.07818C9.68802 9.09888 9.66861 9.11646 9.65579 9.12629L9.3885 9.32046L9.49131 9.00566C9.49658 8.99057 9.50708 8.96655 9.51948 8.9382C9.55538 8.85608 9.60721 8.73756 9.59411 8.69382C9.58175 8.65257 9.47989 8.59252 9.4029 8.54713L9.40289 8.54712C9.37006 8.52777 9.34175 8.51108 9.32682 8.49965L9.05954 8.30548H9.3885ZM9.46786 11.4685C9.43413 11.4651 9.40544 11.4622 9.3885 11.4622H9.06247L9.32682 11.6564C9.34025 11.6659 9.36451 11.6796 9.39314 11.6958C9.471 11.74 9.58122 11.8024 9.59411 11.8476C9.6062 11.89 9.56991 11.9739 9.53454 12.0557L9.53454 12.0557C9.51836 12.0931 9.50237 12.1301 9.49131 12.1624C9.47368 12.2139 9.4568 12.2661 9.43991 12.3183C9.42302 12.3705 9.40613 12.4228 9.3885 12.4742L9.65579 12.2801C9.67027 12.2698 9.69315 12.2492 9.71991 12.2251C9.78544 12.166 9.87426 12.0859 9.92014 12.0859C9.96634 12.0859 10.0576 12.1671 10.1241 12.2263C10.1506 12.2499 10.1732 12.27 10.1874 12.2801L10.4518 12.4742C10.4353 12.4217 10.4135 12.3569 10.3937 12.2983C10.3747 12.2419 10.3576 12.1912 10.349 12.1624C10.3438 12.145 10.3309 12.1156 10.3158 12.0812C10.2799 11.9992 10.2317 11.8891 10.2462 11.8476C10.2612 11.8046 10.3706 11.741 10.4478 11.6962C10.4761 11.6798 10.5001 11.6659 10.5135 11.6564L10.7807 11.4622H10.4518C10.4348 11.4622 10.4062 11.4649 10.3724 11.468L10.3724 11.468C10.2833 11.4763 10.159 11.4878 10.1228 11.4622C10.0856 11.4359 10.0582 11.3085 10.0394 11.2208L10.0394 11.2208L10.0393 11.2208L10.0393 11.2208L10.0393 11.2208L10.0393 11.2207C10.0329 11.1907 10.0274 11.1654 10.0229 11.1504L9.92014 10.8356C9.904 10.8885 9.88714 10.9406 9.87027 10.9928L9.8702 10.993L9.87014 10.9932C9.85327 11.0453 9.8364 11.0975 9.82027 11.1504C9.81425 11.1676 9.80723 11.1982 9.79905 11.2338C9.77929 11.3198 9.75279 11.4352 9.71747 11.4622C9.68125 11.49 9.55695 11.4774 9.46786 11.4685ZM9.3885 14.6219C9.40544 14.6219 9.43413 14.6248 9.46786 14.6282C9.55695 14.6371 9.68125 14.6496 9.71747 14.6219C9.7527 14.5949 9.77916 14.4786 9.79891 14.3917C9.80715 14.3555 9.81422 14.3244 9.82027 14.3071L9.92014 13.9952C9.93776 14.0467 9.95465 14.099 9.97154 14.1512C9.98843 14.2034 10.0053 14.2556 10.0229 14.3071C10.0275 14.3222 10.033 14.3478 10.0395 14.3782C10.0583 14.466 10.0857 14.5935 10.1228 14.6219C10.159 14.6496 10.2833 14.6371 10.3724 14.6282C10.4061 14.6248 10.4348 14.6219 10.4518 14.6219H10.7807L10.5135 14.8131C10.4986 14.8245 10.4706 14.8409 10.4381 14.8599L10.4381 14.8599C10.3618 14.9047 10.2606 14.9639 10.2462 15.0073C10.2317 15.0507 10.2796 15.1579 10.3155 15.2383C10.3307 15.2724 10.3437 15.3016 10.349 15.3191L10.3702 15.3826C10.3982 15.4665 10.4259 15.5493 10.4518 15.6339L10.1874 15.4398C10.1749 15.4302 10.156 15.4133 10.1337 15.3933L10.1337 15.3933L10.1337 15.3933C10.0666 15.3333 9.9686 15.2456 9.92014 15.2456C9.87211 15.2456 9.77704 15.3317 9.71089 15.3916L9.71088 15.3916C9.68802 15.4124 9.66861 15.4299 9.65579 15.4398L9.3885 15.6339L9.49131 15.3191C9.49658 15.304 9.50708 15.28 9.51948 15.2517L9.51948 15.2517C9.55539 15.1695 9.60721 15.051 9.59411 15.0073C9.58175 14.966 9.47989 14.906 9.40289 14.8606C9.37006 14.8412 9.34175 14.8245 9.32682 14.8131C9.27689 14.7749 9.15059 14.6837 9.05954 14.6219H9.3885ZM7.61155 3.57224C7.57782 3.56885 7.54913 3.56596 7.53219 3.56596L7.20323 3.56008L7.47051 3.75425C7.48371 3.76358 7.50696 3.77702 7.5344 3.79288C7.61081 3.83705 7.71973 3.90002 7.73486 3.94548C7.74949 3.98945 7.70164 4.10048 7.66648 4.18206L7.66647 4.18207L7.66647 4.18207C7.65223 4.21511 7.64007 4.24331 7.63499 4.26027C7.59975 4.36324 7.5645 4.46915 7.53219 4.57212L7.79654 4.37795C7.8108 4.36786 7.83369 4.3477 7.86055 4.32404C7.92773 4.26485 8.01976 4.18378 8.06383 4.18378C8.10757 4.18378 8.19711 4.26368 8.2633 4.32274C8.29044 4.34696 8.31365 4.36768 8.32817 4.37795L8.59546 4.57212C8.57784 4.52063 8.56095 4.46842 8.54406 4.4162C8.52717 4.36398 8.51028 4.31175 8.49266 4.26027C8.48743 4.24532 8.4769 4.22144 8.46443 4.19318C8.42782 4.11019 8.37452 3.98937 8.38986 3.94548C8.4049 3.90242 8.51429 3.8389 8.59147 3.79408L8.59149 3.79407C8.61978 3.77763 8.64375 3.76372 8.65714 3.75425L8.92443 3.56008H8.59546C8.57852 3.56008 8.55005 3.56296 8.51658 3.56636C8.42818 3.57532 8.30484 3.58782 8.26649 3.56008C8.22912 3.53304 8.20348 3.4163 8.1844 3.32942C8.1765 3.29341 8.16972 3.26253 8.16369 3.24529C8.14754 3.19233 8.13065 3.14012 8.11376 3.0879C8.09687 3.03568 8.07998 2.98345 8.06383 2.9305L7.96102 3.25117C7.9565 3.26627 7.95101 3.29184 7.9445 3.32216L7.94449 3.32218L7.94449 3.3222L7.94448 3.32225L7.94448 3.32227C7.92563 3.41005 7.89826 3.53754 7.86116 3.56596C7.82494 3.5937 7.70064 3.5812 7.61155 3.57224ZM7.53219 6.72564C7.54913 6.72564 7.57782 6.72852 7.61155 6.73192C7.70064 6.74088 7.82494 6.75338 7.86116 6.72564C7.89837 6.69714 7.92579 6.57063 7.94464 6.48365L7.94464 6.48365L7.94465 6.48361L7.94467 6.48352L7.94467 6.48351L7.94468 6.48348C7.95111 6.45381 7.95654 6.42875 7.96102 6.41379L8.06383 6.099C8.07998 6.15196 8.09687 6.20418 8.11376 6.2564L8.11377 6.25643C8.13066 6.30864 8.14754 6.36085 8.16369 6.41379C8.16968 6.43092 8.17641 6.46153 8.18426 6.49718C8.20335 6.58396 8.22902 6.70062 8.26649 6.72564C8.30484 6.75125 8.42818 6.7397 8.51658 6.73143C8.55005 6.7283 8.57852 6.72564 8.59546 6.72564H8.92443L8.65714 6.91687C8.64217 6.92833 8.61399 6.94509 8.58133 6.96452C8.50504 7.00989 8.40425 7.06984 8.38986 7.11104C8.3746 7.15469 8.42725 7.27284 8.46384 7.35494C8.47657 7.3835 8.48735 7.4077 8.49266 7.42288L8.59546 7.73768L8.32817 7.54351C8.31541 7.53373 8.29593 7.51626 8.27297 7.49568C8.20611 7.43573 8.10974 7.34934 8.06383 7.34934C8.01747 7.34934 7.91804 7.43739 7.85029 7.49739C7.82789 7.51723 7.80895 7.534 7.79654 7.54351L7.53219 7.73768C7.55802 7.65302 7.58572 7.57024 7.6138 7.48634L7.63499 7.42288C7.64013 7.40575 7.65248 7.3774 7.6669 7.34429C7.70202 7.26367 7.74943 7.15483 7.73486 7.11104C7.72036 7.06746 7.61965 7.00779 7.54403 6.96298L7.54402 6.96297C7.51243 6.94426 7.48522 6.92813 7.47051 6.91687C7.4446 6.89702 7.39732 6.8637 7.34552 6.82719L7.34547 6.82715C7.29747 6.79332 7.2456 6.75676 7.20323 6.72564H7.53219ZM7.61155 9.89111L7.61152 9.89111C7.5778 9.88798 7.54913 9.88531 7.53219 9.88531H7.20323L7.47051 10.0795C7.48322 10.0885 7.50526 10.1017 7.53139 10.1173L7.53145 10.1173L7.53146 10.1173C7.60798 10.1631 7.71954 10.2298 7.73486 10.2737C7.74942 10.3153 7.70209 10.4249 7.66698 10.5062L7.66697 10.5062L7.66694 10.5063L7.66692 10.5063C7.65249 10.5397 7.64013 10.5684 7.63499 10.5855L7.61379 10.649L7.61377 10.649C7.5857 10.7329 7.55801 10.8157 7.53219 10.9003L7.79654 10.7061C7.80893 10.6966 7.82783 10.6799 7.85019 10.6601L7.85026 10.66L7.85029 10.66C7.91804 10.6 8.01747 10.512 8.06383 10.512C8.10974 10.512 8.20611 10.5984 8.27297 10.6583L8.27298 10.6583C8.29593 10.6789 8.31541 10.6964 8.32817 10.7061L8.59546 10.9003L8.49266 10.5855C8.48734 10.5703 8.47652 10.5462 8.46375 10.5178C8.42717 10.4364 8.37461 10.3195 8.38986 10.2737C8.40505 10.228 8.5165 10.1631 8.59379 10.118L8.59382 10.118C8.6211 10.1021 8.64412 10.0887 8.65714 10.0795L8.92443 9.88531H8.59546C8.57852 9.88531 8.55005 9.8882 8.51658 9.89159C8.42818 9.90055 8.30484 9.91306 8.26649 9.88531C8.22912 9.85828 8.20348 9.74154 8.1844 9.65466L8.1844 9.65464L8.1844 9.65462L8.18439 9.65458C8.17649 9.61861 8.16971 9.58775 8.16369 9.57052C8.14754 9.51757 8.13065 9.46535 8.11376 9.41314C8.09687 9.36092 8.07998 9.30869 8.06383 9.25573L7.96102 9.57052C7.95649 9.58566 7.95099 9.6115 7.94446 9.64214L7.94445 9.64216C7.92561 9.73063 7.89824 9.85909 7.86116 9.88531C7.82494 9.91092 7.70064 9.89938 7.61155 9.89111ZM7.53219 13.042C7.54913 13.042 7.57782 13.0449 7.61155 13.0483C7.70064 13.0573 7.82494 13.0698 7.86116 13.042C7.89837 13.0135 7.92579 12.887 7.94464 12.8001L7.94464 12.8L7.94466 12.8C7.9511 12.7703 7.95654 12.7452 7.96102 12.7302C7.9762 12.6846 7.99083 12.639 8.00539 12.5936L8.00541 12.5936C8.02465 12.5336 8.04376 12.474 8.06383 12.4154C8.07688 12.457 8.09042 12.4991 8.10404 12.5415C8.12414 12.604 8.14444 12.6671 8.16369 12.7302C8.16968 12.7473 8.17641 12.7779 8.18426 12.8136C8.20335 12.9004 8.22902 13.017 8.26649 13.042C8.30484 13.0677 8.42818 13.0561 8.51658 13.0478L8.51661 13.0478C8.55007 13.0447 8.57852 13.042 8.59546 13.042H8.92443L8.65714 13.2333C8.64217 13.2447 8.614 13.2615 8.58133 13.2809C8.50504 13.3263 8.40425 13.3863 8.38986 13.4274C8.37492 13.4702 8.42507 13.5843 8.46152 13.6673C8.47525 13.6985 8.48703 13.7253 8.49266 13.7422C8.49961 13.7631 8.50958 13.7938 8.52109 13.8291C8.54365 13.8984 8.57213 13.9859 8.59546 14.0541L8.32817 13.8599C8.31367 13.8497 8.29048 13.829 8.26336 13.8048L8.26335 13.8048L8.26333 13.8047L8.26331 13.8047L8.2633 13.8047C8.19711 13.7457 8.10757 13.6657 8.06383 13.6657C8.01976 13.6657 7.92773 13.7468 7.86055 13.806C7.83369 13.8297 7.8108 13.8498 7.79654 13.8599L7.53219 14.0541C7.5645 13.9511 7.59975 13.8452 7.63499 13.7422C7.64569 13.711 7.661 13.6751 7.67654 13.6387L7.67655 13.6386L7.67656 13.6386C7.71222 13.555 7.74918 13.4684 7.73486 13.4274C7.72038 13.386 7.62 13.3256 7.54443 13.2802L7.54441 13.2802C7.51265 13.2611 7.48528 13.2446 7.47051 13.2333C7.4446 13.2134 7.39733 13.1801 7.34554 13.1436L7.34547 13.1436C7.29747 13.1097 7.2456 13.0732 7.20323 13.042H7.53219ZM5.75182 5.15208C5.71835 5.14869 5.68989 5.1458 5.67295 5.1458L5.35573 5.15463L5.62008 5.3488C5.63348 5.35827 5.65748 5.37199 5.68581 5.38819L5.68586 5.38822L5.68587 5.38823C5.76304 5.43235 5.87233 5.49484 5.88736 5.54002C5.90268 5.58607 5.84949 5.70564 5.81289 5.78792L5.81288 5.78793C5.80037 5.81606 5.7898 5.83983 5.78456 5.85482C5.75225 5.95778 5.717 6.06369 5.68176 6.16666L5.94904 5.97249C5.96352 5.96226 5.9864 5.94163 6.01316 5.9175C6.07869 5.85841 6.16751 5.77832 6.21339 5.77832C6.25959 5.77832 6.35083 5.85953 6.41734 5.91872L6.41735 5.91873L6.41735 5.91874L6.41736 5.91874C6.44387 5.94234 6.46645 5.96243 6.48068 5.97249L6.74502 6.16666L6.63341 5.84599C6.62822 5.83114 6.61798 5.80749 6.60586 5.77948C6.56993 5.69648 6.51743 5.57519 6.53061 5.5312C6.54395 5.48665 6.65998 5.42019 6.73851 5.3752L6.73852 5.3752L6.73859 5.37516C6.76375 5.36074 6.78506 5.34854 6.79789 5.33997L7.06224 5.1458H6.73327C6.71633 5.1458 6.68765 5.14846 6.65391 5.1516C6.56483 5.15987 6.44053 5.17141 6.40431 5.1458C6.36712 5.1195 6.3397 4.99202 6.32085 4.90436C6.31439 4.87433 6.30894 4.84897 6.30444 4.83395L6.20164 4.51916C6.1855 4.57209 6.16862 4.62428 6.15174 4.67647L6.15173 4.67648L6.15173 4.6765L6.15172 4.67651L6.15172 4.67652L6.15172 4.67653L6.15171 4.67655C6.13482 4.72877 6.11793 4.78099 6.10178 4.83395C6.09726 4.84904 6.09197 4.87437 6.08571 4.90436L6.0857 4.90436C6.06755 4.99132 6.04123 5.11736 6.00191 5.1458C5.96356 5.17354 5.84022 5.16104 5.75182 5.15208ZM5.67295 8.30548C5.68989 8.30548 5.71835 8.30836 5.75182 8.31175C5.84022 8.32071 5.96356 8.33322 6.00191 8.30548C6.04113 8.27711 6.06741 8.15002 6.08557 8.06225C6.09189 8.03168 6.09722 8.00588 6.10178 7.99069L6.20164 7.67884C6.21926 7.73032 6.23615 7.78254 6.25304 7.83476C6.26993 7.88698 6.28682 7.9392 6.30444 7.99069C6.31703 8.02744 6.32699 8.0732 6.33687 8.11858L6.33687 8.11859L6.33687 8.1186C6.35467 8.20035 6.3722 8.28089 6.40431 8.30548C6.44053 8.33322 6.56483 8.32071 6.65391 8.31175C6.68765 8.30836 6.71633 8.30548 6.73327 8.30548H7.06224L6.79789 8.49965C6.78321 8.51027 6.75743 8.5252 6.72746 8.54256C6.64953 8.58769 6.54334 8.64919 6.53061 8.69382C6.51752 8.7397 6.56924 8.85699 6.60514 8.93842C6.61758 8.96662 6.62812 8.99053 6.63341 9.00566C6.64956 9.05862 6.66645 9.11084 6.68334 9.16306C6.70023 9.21528 6.71712 9.2675 6.73327 9.32046L6.46893 9.12629C6.45644 9.11672 6.43753 9.0998 6.41518 9.0798L6.41517 9.0798C6.34812 9.01981 6.2501 8.93212 6.20164 8.93212C6.15362 8.93212 6.05854 9.01824 5.99238 9.07818C5.96952 9.09888 5.95012 9.11646 5.93729 9.12629L5.67001 9.32046L5.6912 9.257L5.69121 9.25698L5.69122 9.25696L5.69123 9.25694L5.69123 9.25691L5.69124 9.25689C5.71931 9.17302 5.747 9.09028 5.77281 9.00566C5.77812 8.99048 5.7889 8.96628 5.80163 8.93772C5.83822 8.85562 5.89087 8.73747 5.87561 8.69382C5.86122 8.65262 5.76045 8.59269 5.68417 8.54732L5.68415 8.5473L5.68414 8.5473C5.65147 8.52787 5.6233 8.51111 5.60833 8.49965L5.34398 8.30548H5.67295ZM5.75182 11.4685C5.71835 11.4651 5.68989 11.4622 5.67295 11.4622H5.35573L5.62008 11.6564C5.63349 11.6659 5.6575 11.6796 5.68584 11.6958L5.68587 11.6958C5.76304 11.7399 5.87233 11.8024 5.88736 11.8476C5.90087 11.8882 5.86622 11.9668 5.8317 12.0452C5.81366 12.0862 5.79565 12.1271 5.78456 12.1624C5.75225 12.2654 5.717 12.3713 5.68176 12.4742L5.94904 12.2801C5.96352 12.2698 5.98638 12.2492 6.01313 12.2251L6.01314 12.2251L6.01316 12.2251C6.07869 12.166 6.16751 12.0859 6.21339 12.0859C6.25959 12.0859 6.35084 12.1671 6.41735 12.2263L6.41736 12.2263C6.44387 12.2499 6.46645 12.27 6.48068 12.2801L6.74502 12.4742L6.63341 12.1624C6.62822 12.1476 6.61798 12.1239 6.60586 12.0959C6.56993 12.0129 6.51743 11.8916 6.53061 11.8476C6.54395 11.8031 6.65998 11.7366 6.7385 11.6916L6.73851 11.6916L6.73853 11.6916L6.73872 11.6915C6.76383 11.6771 6.78509 11.6649 6.79789 11.6564L7.06224 11.4622H6.73327C6.71634 11.4622 6.68767 11.4649 6.65395 11.468L6.65391 11.468C6.56483 11.4763 6.44053 11.4878 6.40431 11.4622C6.36712 11.4359 6.33971 11.3085 6.32086 11.2208L6.32085 11.2208L6.32085 11.2208C6.31439 11.1907 6.30894 11.1654 6.30444 11.1504L6.20164 10.8356C6.18549 10.8885 6.1686 10.9407 6.15171 10.993C6.13482 11.0452 6.11793 11.0974 6.10178 11.1504C6.09726 11.1654 6.09197 11.1908 6.08571 11.2208C6.06755 11.3077 6.04123 11.4338 6.00191 11.4622C5.96356 11.49 5.84022 11.4774 5.75182 11.4685ZM4.85992 13.275L4.8599 13.275L4.85989 13.2751L4.85988 13.2751C4.78359 13.3204 4.68282 13.3804 4.66842 13.4216C4.65425 13.4621 4.70011 13.567 4.73574 13.6485L4.73574 13.6485C4.75179 13.6852 4.76575 13.7172 4.77123 13.7364C4.78885 13.7981 4.83878 13.9452 4.87403 14.0482L4.60968 13.854C4.59326 13.8431 4.56749 13.8202 4.53783 13.7938C4.47198 13.7354 4.38694 13.6599 4.34239 13.6599C4.29651 13.6599 4.20769 13.74 4.14217 13.799C4.1154 13.8232 4.09253 13.8438 4.07805 13.854L3.81076 14.0482C3.82838 13.9967 3.84527 13.9445 3.86216 13.8923L3.86217 13.8922C3.87906 13.84 3.89594 13.7878 3.91356 13.7364C3.92461 13.7041 3.94055 13.6669 3.9567 13.6293C3.99209 13.5468 4.02847 13.462 4.01637 13.4216C4.00415 13.3808 3.90864 13.3244 3.83163 13.279L3.83161 13.279L3.8316 13.279C3.79754 13.2589 3.76709 13.2409 3.74908 13.2274L3.48179 13.0362H3.80782C3.82477 13.0362 3.85456 13.0391 3.8896 13.0424C3.98212 13.0514 4.11122 13.0639 4.13679 13.0362C4.16136 13.0095 4.19163 12.8971 4.21469 12.8115L4.21469 12.8115L4.2147 12.8114L4.21471 12.8114C4.22472 12.7742 4.23337 12.7421 4.23959 12.7243C4.25884 12.6612 4.27914 12.5981 4.29923 12.5356L4.29925 12.5356L4.29928 12.5355C4.31289 12.4931 4.32642 12.4511 4.33946 12.4095C4.35251 12.4511 4.36605 12.4932 4.37967 12.5356C4.39977 12.5981 4.42007 12.6612 4.43932 12.7243C4.44531 12.7414 4.45204 12.772 4.45987 12.8076L4.45988 12.8077L4.45989 12.8077L4.45989 12.8077C4.47898 12.8945 4.50465 13.0111 4.54212 13.0362C4.58047 13.0618 4.70381 13.0502 4.79221 13.042L4.79224 13.042C4.8257 13.0388 4.85415 13.0362 4.87109 13.0362H5.20006L4.93571 13.2274C4.92075 13.2389 4.89261 13.2556 4.85998 13.275L4.85994 13.275L4.85992 13.275ZM4.87236 10.1092C4.89965 10.0933 4.92268 10.0799 4.93571 10.0707L5.20006 9.87943H4.87109C4.85415 9.87943 4.82569 9.88232 4.79221 9.88571C4.70381 9.89467 4.58047 9.90717 4.54212 9.87943C4.50475 9.85239 4.47911 9.73566 4.46004 9.64878C4.45213 9.61276 4.44535 9.58188 4.43932 9.56464C4.42317 9.51169 4.40628 9.45947 4.38939 9.40725C4.3725 9.35503 4.35561 9.30281 4.33946 9.24985C4.32331 9.30277 4.30644 9.35496 4.28956 9.40714L4.28955 9.40716L4.28952 9.40724L4.2895 9.40733L4.28949 9.40734C4.27261 9.45953 4.25574 9.51172 4.23959 9.56464C4.23332 9.58259 4.22459 9.61561 4.21447 9.65383C4.19145 9.74087 4.16128 9.8549 4.13679 9.87943C4.11122 9.90504 3.98212 9.8935 3.8896 9.88523L3.88956 9.88522C3.85454 9.88209 3.82476 9.87943 3.80782 9.87943H3.48179L3.74908 10.0736C3.76209 10.0828 3.78527 10.0964 3.81276 10.1125C3.89074 10.1582 4.00333 10.2243 4.01637 10.2678C4.0287 10.309 3.98202 10.4165 3.94686 10.4975C3.9318 10.5322 3.91885 10.562 3.91356 10.5796L3.81076 10.8915C3.84859 10.8637 3.894 10.831 3.93745 10.7998L3.93781 10.7995L3.93804 10.7993L3.93808 10.7993C3.99562 10.7579 4.04965 10.719 4.07805 10.6973C4.09087 10.6875 4.11027 10.6699 4.13313 10.6492C4.19929 10.5893 4.29437 10.5031 4.34239 10.5031C4.38882 10.5031 4.47921 10.5836 4.54604 10.6431L4.54605 10.6431L4.54606 10.6431C4.57224 10.6664 4.5948 10.6865 4.60968 10.6973L4.87403 10.8915L4.77123 10.5767C4.76599 10.5592 4.75295 10.53 4.73777 10.496L4.73774 10.4959L4.73774 10.4959C4.70186 10.4155 4.65398 10.3082 4.66842 10.2648C4.68362 10.2192 4.79507 10.1542 4.87236 10.1092ZM4.93571 6.91098C4.92074 6.92245 4.89256 6.93921 4.8599 6.95864C4.78361 7.00401 4.68282 7.06395 4.66842 7.10515C4.654 7.14644 4.70176 7.25437 4.73763 7.33541L4.73763 7.33542C4.75288 7.36987 4.76597 7.39945 4.77123 7.417L4.87403 7.73179L4.60968 7.53762C4.5948 7.52686 4.57224 7.50677 4.54605 7.48345C4.47923 7.42395 4.38882 7.34345 4.34239 7.34345C4.29437 7.34345 4.19929 7.42958 4.13313 7.48951C4.11027 7.51022 4.09087 7.5278 4.07805 7.53762L3.81076 7.73179L3.91356 7.417C3.91883 7.3994 3.93173 7.36995 3.94674 7.33567L3.94674 7.33566C3.98192 7.25533 4.02872 7.14845 4.01637 7.10515C4.00399 7.06175 3.90175 7.00239 3.8247 6.95765C3.79206 6.93869 3.76394 6.92236 3.74908 6.91098L3.48179 6.71975H3.80782C3.82477 6.71975 3.85456 6.72264 3.8896 6.72603C3.98212 6.73499 4.11122 6.7475 4.13679 6.71975C4.16136 6.6931 4.19163 6.58068 4.21469 6.49508L4.21469 6.49507C4.22471 6.45787 4.23336 6.42573 4.23959 6.40791C4.25575 6.35495 4.27263 6.30274 4.28952 6.25052L4.28952 6.25051L4.28953 6.2505C4.30642 6.19828 4.3233 6.14606 4.33946 6.09311C4.35561 6.14607 4.3725 6.19829 4.38939 6.25051C4.40628 6.30273 4.42317 6.35495 4.43932 6.40791C4.44531 6.42504 4.45204 6.45565 4.45989 6.4913C4.47898 6.57807 4.50465 6.69473 4.54212 6.71975C4.58047 6.74536 4.70381 6.73382 4.79221 6.72555C4.82569 6.72242 4.85415 6.71975 4.87109 6.71975H5.20006L4.93571 6.91098ZM5.34398 14.616L5.60833 14.8072V14.8131C5.62391 14.8251 5.65379 14.8421 5.68816 14.8618C5.76392 14.9051 5.86147 14.9609 5.87561 15.0014C5.89087 15.0451 5.83822 15.1632 5.80163 15.2453C5.7889 15.2739 5.77812 15.2981 5.77281 15.3133C5.74699 15.3979 5.71929 15.4807 5.69121 15.5646C5.68416 15.5856 5.67708 15.6068 5.67001 15.628L5.93729 15.4339C5.95012 15.4241 5.96952 15.4065 5.99238 15.3858C6.05854 15.3258 6.15362 15.2397 6.20164 15.2397C6.2501 15.2397 6.34812 15.3274 6.41517 15.3874C6.43753 15.4074 6.45644 15.4243 6.46893 15.4339L6.73327 15.628C6.71712 15.5751 6.70023 15.5229 6.68334 15.4706C6.66645 15.4184 6.64956 15.3662 6.63341 15.3133C6.62812 15.2981 6.61758 15.2742 6.60514 15.246C6.56924 15.1646 6.51752 15.0473 6.53061 15.0014C6.54334 14.9568 6.64954 14.8953 6.72746 14.8501C6.75743 14.8328 6.78321 14.8179 6.79789 14.8072L7.06224 14.616H6.73327C6.71633 14.616 6.68765 14.6189 6.65391 14.6223C6.56483 14.6312 6.44053 14.6437 6.40431 14.616C6.36721 14.5876 6.33984 14.4601 6.32099 14.3723C6.31447 14.3419 6.30897 14.3163 6.30444 14.3012C6.28682 14.2497 6.26993 14.1975 6.25304 14.1453C6.23615 14.0931 6.21926 14.0408 6.20164 13.9894L6.10178 14.3012C6.09722 14.3164 6.09189 14.3422 6.08557 14.3728C6.06741 14.4605 6.04113 14.5876 6.00191 14.616C5.96356 14.6437 5.84022 14.6312 5.75182 14.6223C5.71835 14.6189 5.68989 14.616 5.67295 14.616H5.34398Z" fill="#0437A0"/>
<path id="Path_9" fill-rule="evenodd" clip-rule="evenodd" d="M2.15433 8.69089C2.17489 8.74973 2.07209 8.9439 2.05446 9.00274C2.01922 9.10865 1.98397 9.21162 1.95166 9.31753L2.21601 9.12336C2.26594 9.08511 2.41867 8.92919 2.48329 8.92919C2.54791 8.92919 2.69771 9.08511 2.74764 9.12336L3.01493 9.31753C2.97968 9.21162 2.94443 9.10865 2.91212 9.00274C2.89156 8.9439 2.78876 8.74973 2.80932 8.69089C2.82988 8.63205 3.02668 8.53496 3.07661 8.49672L3.34096 8.30255H3.01199C2.95031 8.30255 2.73589 8.34079 2.68596 8.30255C2.63603 8.2643 2.60372 8.0466 2.58316 7.98776L2.55672 7.90833C2.4128 8.15839 2.263 8.41434 2.14552 8.6703C2.14845 8.67912 2.15433 8.68501 2.15433 8.69089Z" fill="#F4F4F4"/>
<path id="Path_10" fill-rule="evenodd" clip-rule="evenodd" d="M9.82323 1.67431C9.80267 1.73315 9.7733 1.95085 9.72043 1.9891C9.66756 2.02734 9.45315 1.9891 9.39147 1.9891H9.0625L9.32979 2.18327C9.37972 2.21857 9.57651 2.31566 9.59707 2.37744C9.61763 2.43922 9.51483 2.63045 9.49427 2.68929L9.38853 3.00114L9.65581 2.80697C9.70575 2.76872 9.85848 2.6128 9.92016 2.6128C9.98184 2.6128 10.1375 2.76872 10.1874 2.80697L10.4518 3.00114C10.4195 2.89523 10.3842 2.79226 10.349 2.68635C10.3314 2.62751 10.2286 2.43334 10.2462 2.3745C10.2638 2.31566 10.4635 2.21563 10.5135 2.18033L10.7808 1.98616H10.4547C10.3931 1.98616 10.161 2.02146 10.1258 1.98616C10.0905 1.95085 10.0435 1.7302 10.0259 1.67137L9.97597 1.55957L9.82911 1.61547L9.82323 1.67431Z" fill="#F4F4F4"/>
<path id="Path_11" fill-rule="evenodd" clip-rule="evenodd" d="M0.888266 13.8599L1.15261 14.0541C1.12031 13.9512 1.08506 13.8452 1.04981 13.7423C1.01457 13.6393 0.929387 13.4863 0.949947 13.4275C0.970508 13.3686 1.16436 13.2716 1.2143 13.2333C1.26423 13.1951 1.39346 13.1068 1.48158 13.0421H1.16436C1.10268 13.0421 0.885329 13.0803 0.835397 13.0421C0.804026 13.0121 0.780778 12.9747 0.767841 12.9332C0.72672 13.1715 0.694411 13.4245 0.665039 13.6805C0.742873 13.7359 0.817409 13.7958 0.888266 13.8599Z" fill="#F4F4F4"/>
<path id="Path_12" fill-rule="evenodd" clip-rule="evenodd" d="M13.3185 11.8476C13.3361 11.9094 13.2333 12.1036 13.2157 12.1624C13.1981 12.2212 13.1481 12.3713 13.1129 12.4742L13.3772 12.2801C13.4272 12.2448 13.5829 12.0859 13.6445 12.0859C13.7062 12.0859 13.859 12.2448 13.9089 12.2801L14.1762 12.4742C14.1409 12.3713 14.1086 12.2654 14.0734 12.1624C14.0381 12.0594 13.9529 11.9094 13.9706 11.8476C13.9882 11.7858 14.1879 11.6917 14.2378 11.6564L14.5051 11.4622H14.1762C14.1145 11.4622 13.8971 11.5005 13.8472 11.4622C13.7973 11.424 13.765 11.2092 13.7444 11.1504C13.7121 11.0445 13.6768 10.9415 13.6445 10.8356C13.6122 10.9415 13.577 11.0445 13.5447 11.1504C13.5241 11.2092 13.4918 11.4269 13.4419 11.4622C13.3919 11.4975 13.1746 11.4622 13.1129 11.4622H12.7839L13.0512 11.6564C13.1012 11.6917 13.2979 11.7888 13.3185 11.8476Z" fill="#F4F4F4"/>
<path id="Path_13" fill-rule="evenodd" clip-rule="evenodd" d="M7.735 10.2855C7.75556 10.3443 7.65276 10.5385 7.63514 10.5973C7.59989 10.7032 7.56464 10.8062 7.53234 10.9121L7.79668 10.7179C7.84662 10.6797 7.99935 10.5238 8.06397 10.5238C8.12859 10.5238 8.27838 10.6797 8.32832 10.7179L8.5956 10.9121L8.50749 10.5796C8.48693 10.5208 8.38412 10.3266 8.40468 10.2678C8.42524 10.209 8.62204 10.1089 8.67197 10.0736L8.93925 9.87946H8.5956C8.53392 9.87946 8.31657 9.91476 8.26664 9.87946C8.2167 9.84416 8.18439 9.62351 8.16383 9.56467C8.13152 9.45876 8.09628 9.35579 8.06397 9.24988L7.96117 9.56467C7.94354 9.62351 7.91123 9.84121 7.8613 9.87946C7.81137 9.91771 7.59402 9.87946 7.53234 9.87946H7.20337L7.47065 10.0736C7.52059 10.1119 7.71738 10.209 7.735 10.2855Z" fill="#F4F4F4"/>
<path id="Path_14" fill-rule="evenodd" clip-rule="evenodd" d="M7.735 13.4275C7.75556 13.4863 7.65276 13.6805 7.63514 13.7423C7.61751 13.8041 7.56464 13.9512 7.53234 14.0541L7.79668 13.86C7.84662 13.8247 7.99935 13.6658 8.06397 13.6658C8.12859 13.6658 8.27838 13.8247 8.32832 13.86L8.5956 14.0541C8.56035 13.9512 8.52805 13.8453 8.4928 13.7423C8.45755 13.6393 8.36944 13.4863 8.39 13.4275C8.41056 13.3687 8.60735 13.2716 8.65728 13.2333L8.92457 13.0421H8.5956C8.53392 13.0421 8.31657 13.0804 8.26664 13.0421C8.2167 13.0039 8.18439 12.7891 8.16383 12.7303C8.13152 12.6243 8.09628 12.5184 8.06397 12.4155C8.02872 12.5184 7.99641 12.6243 7.96117 12.7303C7.94354 12.7891 7.91123 13.0068 7.8613 13.0421C7.81137 13.0774 7.59402 13.0421 7.53234 13.0421H7.20337C7.29149 13.1068 7.3796 13.1716 7.47065 13.2333C7.56171 13.2951 7.71738 13.3687 7.735 13.4275Z" fill="#F4F4F4"/>
<path id="Path_15" fill-rule="evenodd" clip-rule="evenodd" d="M9.59707 15.0073C9.61469 15.0662 9.51483 15.2603 9.49427 15.3192L9.38853 15.634L9.65581 15.4398C9.70575 15.4016 9.85848 15.2456 9.92016 15.2456C9.98184 15.2456 10.1375 15.4016 10.1874 15.4398L10.4518 15.634C10.4195 15.5281 10.3842 15.4251 10.349 15.3192C10.3314 15.2603 10.2286 15.0662 10.2462 15.0073C10.2638 14.9485 10.4635 14.8514 10.5135 14.8132L10.7808 14.6219H10.4547C10.3931 14.6219 10.161 14.6602 10.1258 14.6219C10.0905 14.5837 10.0435 14.366 10.0259 14.3071C9.99066 14.2042 9.95835 14.0983 9.9231 13.9953L9.82323 14.3071C9.80267 14.366 9.7733 14.5837 9.72043 14.6219C9.66756 14.6602 9.45315 14.6219 9.39147 14.6219H9.0625C9.15355 14.6837 9.24167 14.7484 9.32979 14.8132C9.4179 14.8779 9.57651 14.9456 9.59707 15.0073Z" fill="#F4F4F4"/>
<path id="Path_16" fill-rule="evenodd" clip-rule="evenodd" d="M7.735 7.11104C7.75556 7.17282 7.65276 7.36405 7.63514 7.42289C7.59989 7.5288 7.56464 7.63177 7.53234 7.73768L7.79668 7.54351C7.84662 7.50526 7.99935 7.34934 8.06397 7.34934C8.12859 7.34934 8.27838 7.50526 8.32832 7.54351L8.5956 7.73768L8.50749 7.42289C8.48693 7.36405 8.38412 7.17282 8.40468 7.11104C8.42524 7.04926 8.62204 6.95511 8.67197 6.91687L8.93925 6.72564H8.5956C8.53392 6.72564 8.31657 6.76388 8.26664 6.72564C8.2167 6.68739 8.18439 6.47263 8.16383 6.41379C8.13152 6.30788 8.09628 6.20491 8.06397 6.099L7.96117 6.41379C7.94354 6.47263 7.91123 6.69034 7.8613 6.72564C7.81137 6.76094 7.59402 6.72564 7.53234 6.72564H7.20337C7.29149 6.79036 7.3796 6.85509 7.47065 6.91687C7.56171 6.97865 7.71738 7.04926 7.735 7.11104Z" fill="#F4F4F4"/>
<path id="Path_17" fill-rule="evenodd" clip-rule="evenodd" d="M7.735 3.95138C7.75556 4.01316 7.65276 4.20733 7.63514 4.26617C7.59989 4.36914 7.56464 4.47505 7.53234 4.57802L7.79668 4.38385C7.84662 4.34855 7.99935 4.18968 8.06397 4.18968C8.12859 4.18968 8.27838 4.34855 8.32832 4.38385L8.5956 4.57802C8.56035 4.47505 8.52805 4.36914 8.4928 4.26617C8.47224 4.20733 8.36944 4.01316 8.39 3.95138C8.41056 3.8896 8.60735 3.79546 8.65728 3.76015L8.92457 3.56598H8.5956C8.53392 3.56598 8.31657 3.60423 8.26664 3.56598C8.2167 3.52774 8.18439 3.31003 8.16383 3.25119C8.13152 3.14528 8.09628 3.04231 8.06397 2.9364L7.96117 3.25413C7.94354 3.31297 7.91123 3.53068 7.8613 3.56892C7.81137 3.60717 7.59402 3.56892 7.53234 3.56892H7.20337L7.47065 3.7631C7.52059 3.79546 7.71738 3.89254 7.735 3.95138Z" fill="#F4F4F4"/>
<path id="Path_18" fill-rule="evenodd" clip-rule="evenodd" d="M5.86388 8.69088C5.88444 8.74972 5.78164 8.94389 5.76108 9.00273C5.72877 9.10864 5.69352 9.21161 5.65827 9.31752L5.92556 9.12335C5.97549 9.08511 6.12823 8.92918 6.18991 8.92918C6.25159 8.92918 6.40726 9.08511 6.45719 9.12335L6.72154 9.31752C6.68923 9.21161 6.65399 9.10864 6.62168 9.00273C6.60112 8.94389 6.49831 8.74972 6.51887 8.69088C6.53943 8.63204 6.73329 8.53496 6.78616 8.49671L7.05051 8.30254H6.74504C6.68336 8.30254 6.46894 8.34079 6.41607 8.30254C6.3632 8.2643 6.33383 8.04659 6.31621 7.98775C6.29858 7.92891 6.24865 7.77887 6.21341 7.6759L6.11354 7.98775C6.09592 8.04659 6.06361 8.2643 6.01368 8.30254C5.96374 8.34079 5.74639 8.30254 5.68471 8.30254H5.34399L5.60834 8.49671C5.65827 8.53496 5.86388 8.6291 5.86388 8.69088Z" fill="#F4F4F4"/>
<path id="Path_19" fill-rule="evenodd" clip-rule="evenodd" d="M5.86388 5.53123C5.88444 5.59301 5.78164 5.78718 5.76108 5.84602C5.72877 5.94899 5.69352 6.0549 5.65827 6.15787L5.92556 5.9637C5.97549 5.92839 6.12823 5.76953 6.18991 5.76953C6.25159 5.76953 6.40726 5.92839 6.45719 5.9637L6.74504 6.16669L6.64517 5.85484C6.62461 5.796 6.52181 5.60183 6.54237 5.54005C6.56293 5.47827 6.75679 5.38413 6.80966 5.34883L7.074 5.15466H6.74504C6.68336 5.15466 6.46894 5.1929 6.41607 5.15466C6.3632 5.11641 6.33383 4.90165 6.31621 4.84281L6.21341 4.52802C6.1811 4.63393 6.14585 4.7369 6.11354 4.84281C6.09592 4.90165 6.06361 5.11935 6.01368 5.15466C5.96374 5.18996 5.74639 5.15466 5.68471 5.15466H5.34399L5.60834 5.34883C5.65827 5.3753 5.86388 5.47239 5.86388 5.53123Z" fill="#F4F4F4"/>
<path id="Path_20" fill-rule="evenodd" clip-rule="evenodd" d="M5.67002 15.634L5.93731 15.4398C5.98724 15.4016 6.13998 15.2456 6.20166 15.2456C6.26334 15.2456 6.41901 15.4016 6.46894 15.4398L6.73329 15.634C6.70098 15.5281 6.66573 15.4251 6.63342 15.3192C6.61286 15.2603 6.51006 15.0662 6.53062 15.0073C6.55118 14.9485 6.74504 14.8514 6.79791 14.8132L7.06226 14.6219H6.74504C6.68336 14.6219 6.46894 14.6602 6.41607 14.6219C6.3632 14.5837 6.33383 14.366 6.31621 14.3071C6.28096 14.2042 6.24865 14.0983 6.21341 13.9953L6.11354 14.3071C6.09592 14.366 6.06361 14.5837 6.01368 14.6219C5.96374 14.6602 5.74639 14.6219 5.68471 14.6219H5.34399L5.60834 14.8132C5.65827 14.8514 5.85507 14.9456 5.87563 15.0073C5.89619 15.0691 5.79339 15.2603 5.77283 15.3192C5.74052 15.4251 5.70527 15.5281 5.67002 15.634Z" fill="#F4F4F4"/>
<path id="Path_21" fill-rule="evenodd" clip-rule="evenodd" d="M4.5452 6.72564C4.49233 6.69034 4.46296 6.47263 4.4424 6.41379C4.41009 6.30788 4.37484 6.20491 4.34253 6.099C4.31022 6.20491 4.27498 6.30788 4.24267 6.41379C4.22211 6.47263 4.19274 6.69034 4.13987 6.72564C4.087 6.76094 3.87258 6.72564 3.8109 6.72564H3.48193L3.74922 6.91687C3.79915 6.95511 3.99594 7.0522 4.0165 7.11104C4.03706 7.16988 3.93133 7.36405 3.9137 7.42289L3.80796 7.73768L4.07525 7.54351C4.12518 7.50526 4.27498 7.34934 4.3396 7.34934C4.40421 7.34934 4.55401 7.50526 4.60688 7.54351L4.87123 7.73768L4.76843 7.42289C4.7508 7.36405 4.648 7.17282 4.66562 7.11104C4.68325 7.04926 4.88298 6.95511 4.93291 6.91687L5.2002 6.72564H4.87417C4.81248 6.72564 4.59513 6.75506 4.5452 6.72564Z" fill="#F4F4F4"/>
<path id="Path_22" fill-rule="evenodd" clip-rule="evenodd" d="M4.5452 13.0421C4.49233 13.0068 4.46296 12.7891 4.4424 12.7303C4.41009 12.6243 4.37484 12.5184 4.34253 12.4155C4.31022 12.5184 4.27498 12.6243 4.24267 12.7303C4.22211 12.7891 4.19274 13.0068 4.13987 13.0421C4.087 13.0774 3.87258 13.0421 3.8109 13.0421H3.48193L3.74922 13.2333C3.79915 13.2716 3.99594 13.3687 4.0165 13.4275C4.03706 13.4863 3.93133 13.6805 3.9137 13.7423C3.89608 13.8041 3.84615 13.9512 3.8109 14.0541L4.07819 13.86C4.12812 13.8247 4.27791 13.6658 4.34253 13.6658C4.40715 13.6658 4.55695 13.8247 4.60982 13.86L4.87417 14.0541C4.83892 13.9512 4.80661 13.8453 4.77136 13.7423C4.73612 13.6393 4.65094 13.4863 4.66856 13.4275C4.68619 13.3687 4.88592 13.2716 4.93585 13.2333L5.20313 13.0421H4.87417C4.81249 13.0421 4.59513 13.0804 4.5452 13.0421Z" fill="#F4F4F4"/>
<path id="Path_23" fill-rule="evenodd" clip-rule="evenodd" d="M5.86388 11.8476C5.88444 11.9094 5.78164 12.1036 5.76108 12.1624C5.74052 12.2212 5.69352 12.3713 5.65827 12.4742L5.92556 12.2801C5.97549 12.2448 6.12823 12.0859 6.18991 12.0859C6.25159 12.0859 6.40726 12.2448 6.45719 12.2801L6.72154 12.4742L6.62168 12.1624C6.60112 12.1036 6.49831 11.9094 6.51887 11.8476C6.53943 11.7858 6.73329 11.6917 6.78616 11.6564L7.05051 11.4622H6.74504C6.68336 11.4622 6.46894 11.5005 6.41607 11.4622C6.3632 11.424 6.33383 11.2092 6.31621 11.1504L6.21341 10.8356C6.1811 10.9415 6.14585 11.0445 6.11354 11.1504C6.09592 11.2092 6.06361 11.4269 6.01368 11.4622C5.96374 11.4975 5.74639 11.4622 5.68471 11.4622H5.34399L5.60834 11.6564C5.65827 11.6917 5.86388 11.7888 5.86388 11.8476Z" fill="#F4F4F4"/>
<path id="Path_24" fill-rule="evenodd" clip-rule="evenodd" d="M4.5452 9.88532C4.49233 9.84707 4.46296 9.62937 4.4424 9.57053C4.41009 9.46462 4.37484 9.36165 4.34253 9.25574C4.31022 9.36165 4.27498 9.46462 4.24267 9.57053C4.22211 9.62937 4.19274 9.84707 4.13987 9.88532C4.087 9.92356 3.87258 9.88532 3.8109 9.88532H3.48193L3.74922 10.0795C3.79915 10.1148 3.99594 10.2119 4.0165 10.2737C4.03706 10.3354 3.93133 10.5267 3.9137 10.5855L3.80796 10.8974C3.89608 10.8326 3.98419 10.765 4.07525 10.7032C4.1663 10.6414 4.27498 10.509 4.3396 10.509C4.40421 10.509 4.55401 10.6649 4.60688 10.7032L4.87123 10.8974L4.77136 10.5796C4.75374 10.5208 4.65094 10.3266 4.66856 10.2678C4.68619 10.2089 4.88592 10.1089 4.93585 10.0736L5.20313 9.87944H4.87417C4.81249 9.88532 4.59513 9.92062 4.5452 9.88532Z" fill="#F4F4F4"/>
<path id="Path_25" fill-rule="evenodd" clip-rule="evenodd" d="M2.68582 14.6219C2.63296 14.5837 2.60358 14.366 2.58302 14.3071L2.48316 13.9953C2.44791 14.0983 2.4156 14.2042 2.38036 14.3071C2.36273 14.366 2.33042 14.5837 2.28049 14.6219C2.23056 14.6602 2.01321 14.6219 1.95152 14.6219H1.62256L1.88984 14.8132C1.93978 14.8514 2.13657 14.9456 2.15419 15.0073C2.17181 15.0691 2.07195 15.2603 2.05433 15.3192C2.01908 15.4251 1.98383 15.5281 1.95152 15.634L2.21587 15.4398C2.26581 15.4016 2.41854 15.2456 2.48316 15.2456C2.54778 15.2456 2.69757 15.4016 2.74751 15.4398L3.01479 15.634C2.97954 15.5281 2.9443 15.4251 2.91199 15.3192C2.89143 15.2603 2.78863 15.0662 2.80919 15.0073C2.82975 14.9485 3.02654 14.8514 3.07647 14.8132L3.34082 14.6219H3.01185C2.95017 14.6219 2.73576 14.6602 2.68582 14.6219Z" fill="#F4F4F4"/>
<path id="Path_26" fill-rule="evenodd" clip-rule="evenodd" d="M11.4447 3.95138C11.4652 4.01316 11.3624 4.20733 11.3419 4.26617L11.242 4.57802L11.5064 4.38385C11.5563 4.34855 11.709 4.18968 11.7737 4.18968C11.8383 4.18968 11.9881 4.34855 12.038 4.38385L12.3053 4.57802C12.27 4.47505 12.2348 4.36914 12.2025 4.26617C12.1819 4.20733 12.0791 4.01316 12.0997 3.95138C12.1202 3.8896 12.3141 3.79546 12.367 3.76015L12.6313 3.56598H12.3258C12.2642 3.56598 12.0498 3.60423 11.9969 3.56598C11.944 3.52774 11.9146 3.31003 11.897 3.25119C11.8618 3.14528 11.8295 3.04231 11.7972 2.9364L11.6826 3.25413C11.665 3.31297 11.6327 3.53068 11.5827 3.56892C11.5328 3.60717 11.3155 3.56892 11.2538 3.56892H10.9248L11.1892 3.7631C11.242 3.79546 11.4447 3.89254 11.4447 3.95138Z" fill="#F4F4F4"/>
<path id="Path_27" fill-rule="evenodd" clip-rule="evenodd" d="M13.3185 15.0073C13.3361 15.0662 13.2333 15.2603 13.2157 15.3192L13.1129 15.634L13.3772 15.4398C13.4272 15.4016 13.5829 15.2456 13.6445 15.2456C13.7062 15.2456 13.859 15.4016 13.9089 15.4398L14.1762 15.634L14.0881 15.3192C14.0704 15.2603 13.9676 15.0662 13.9852 15.0073C14.0029 14.9485 14.2026 14.8514 14.2525 14.8132L14.5198 14.6219H14.1762C14.1145 14.6219 13.8971 14.6602 13.8472 14.6219C13.7973 14.5837 13.765 14.366 13.7444 14.3071L13.6445 13.9953L13.5447 14.3071C13.5241 14.366 13.4918 14.5837 13.4419 14.6219C13.3919 14.6602 13.1746 14.6219 13.1129 14.6219H12.7839L13.0512 14.8132C13.1012 14.8514 13.2979 14.9456 13.3185 15.0073Z" fill="#F4F4F4"/>
<path id="Path_28" fill-rule="evenodd" clip-rule="evenodd" d="M11.4447 7.11104C11.4652 7.17282 11.3624 7.36405 11.3419 7.42289C11.3096 7.5288 11.2743 7.63177 11.242 7.73768L11.5064 7.54351C11.5563 7.50526 11.709 7.34934 11.7737 7.34934C11.8383 7.34934 11.9881 7.50526 12.038 7.54351L12.3053 7.73768C12.27 7.63177 12.2348 7.5288 12.2025 7.42289C12.1819 7.36405 12.0791 7.17282 12.0997 7.11104C12.1202 7.04926 12.3141 6.95511 12.367 6.91687L12.6313 6.72564H12.3258C12.2642 6.72564 12.0498 6.76388 11.9969 6.72564C11.944 6.68739 11.9146 6.47263 11.897 6.41379C11.8618 6.30788 11.8295 6.20491 11.7972 6.099L11.6944 6.41379C11.6767 6.47263 11.6444 6.69034 11.5945 6.72564C11.5446 6.76094 11.3272 6.72564 11.2655 6.72564H10.9248L11.1892 6.91687C11.242 6.95511 11.4447 7.04926 11.4447 7.11104Z" fill="#F4F4F4"/>
<path id="Path_29" fill-rule="evenodd" clip-rule="evenodd" d="M13.3185 8.69088C13.3361 8.74972 13.2333 8.94389 13.2157 9.00273L13.1129 9.31752L13.3772 9.12335C13.4272 9.08511 13.5829 8.92918 13.6445 8.92918C13.7062 8.92918 13.859 9.08511 13.9089 9.12335L14.1762 9.31752L14.0881 9.00273C14.0704 8.94389 13.9676 8.74972 13.9852 8.69088C14.0029 8.63204 14.2026 8.53496 14.2525 8.49671L14.5198 8.30254H14.1762C14.1145 8.30254 13.8971 8.34079 13.8472 8.30254C13.7973 8.2643 13.765 8.04659 13.7444 7.98775L13.6445 7.6759L13.5447 7.98775C13.5241 8.04659 13.4918 8.2643 13.4419 8.30254C13.3919 8.34079 13.1746 8.30254 13.1129 8.30254H12.7839L13.0512 8.49671C13.1012 8.53496 13.2979 8.6291 13.3185 8.69088Z" fill="#F4F4F4"/>
<path id="Path_30" fill-rule="evenodd" clip-rule="evenodd" d="M13.3185 5.5312C13.3361 5.59298 13.2333 5.78715 13.2157 5.84599C13.1805 5.94896 13.1481 6.05487 13.1129 6.15784L13.3772 5.96367C13.4272 5.92837 13.5829 5.7695 13.6445 5.7695C13.7062 5.7695 13.859 5.92837 13.9089 5.96367L14.1762 6.15784C14.1409 6.05487 14.1086 5.94896 14.0734 5.84599C14.0557 5.78715 13.9529 5.59298 13.9706 5.5312C13.9882 5.46942 14.1879 5.37528 14.2378 5.33997L14.5051 5.1458H14.1762C14.1145 5.1458 13.8971 5.18405 13.8472 5.1458C13.7973 5.10756 13.765 4.8928 13.7444 4.83396C13.7121 4.72804 13.6768 4.62508 13.6445 4.51917C13.6122 4.62508 13.577 4.72804 13.5447 4.83396C13.5241 4.8928 13.4918 5.1105 13.4419 5.1458C13.3919 5.18111 13.1746 5.1458 13.1129 5.1458H12.7839L13.0512 5.33997C13.1012 5.37528 13.2979 5.47236 13.3185 5.5312Z" fill="#F4F4F4"/>
<path id="Path_31" fill-rule="evenodd" clip-rule="evenodd" d="M11.4447 10.2854C11.4652 10.3443 11.3624 10.5384 11.3419 10.5973C11.3096 10.7032 11.2743 10.8062 11.242 10.9121L11.5064 10.7179C11.5563 10.6797 11.709 10.5237 11.7737 10.5237C11.8383 10.5237 11.9881 10.6797 12.038 10.7179L12.3053 10.9121C12.27 10.8062 12.2348 10.7032 12.2025 10.5973C12.1819 10.5384 12.0791 10.3443 12.0997 10.2854C12.1202 10.2266 12.3141 10.1266 12.367 10.0913L12.6313 9.8971H12.3258C12.2642 9.8971 12.0498 9.9324 11.9969 9.8971C11.944 9.8618 11.9146 9.64115 11.897 9.58231C11.8618 9.4764 11.8295 9.37343 11.7972 9.26752L11.6944 9.58231C11.6767 9.64115 11.6444 9.85885 11.5945 9.8971C11.5446 9.93534 11.3272 9.8971 11.2655 9.8971H10.9248L11.1892 10.0913C11.242 10.1119 11.4447 10.2089 11.4447 10.2854Z" fill="#F4F4F4"/>
<path id="Path_32" fill-rule="evenodd" clip-rule="evenodd" d="M9.59707 5.5312C9.61469 5.59298 9.51483 5.78715 9.49427 5.84599C9.45902 5.94896 9.42671 6.05487 9.39147 6.15784L9.65875 5.96367C9.70868 5.92837 9.86142 5.7695 9.9231 5.7695C9.98478 5.7695 10.1405 5.92837 10.1904 5.96367L10.4547 6.15784C10.4224 6.05487 10.3872 5.94896 10.3519 5.84599C10.3343 5.78715 10.2315 5.59298 10.2491 5.5312C10.2668 5.46942 10.4665 5.37528 10.5164 5.33997L10.7837 5.1458H10.4547C10.3931 5.1458 10.161 5.18405 10.1258 5.1458C10.0905 5.10756 10.0435 4.8928 10.0259 4.83396L9.9231 4.51917C9.89079 4.62508 9.85554 4.72804 9.82323 4.83396C9.80267 4.8928 9.7733 5.1105 9.72043 5.1458C9.66756 5.18111 9.45315 5.1458 9.39147 5.1458H9.0625L9.32979 5.33997C9.38853 5.37528 9.57651 5.47236 9.59707 5.5312Z" fill="#F4F4F4"/>
<path id="Path_33" fill-rule="evenodd" clip-rule="evenodd" d="M11.4447 13.4275C11.4652 13.4863 11.3624 13.6805 11.3419 13.7423L11.242 14.0541L11.5064 13.86C11.5563 13.8247 11.709 13.6658 11.7737 13.6658C11.8383 13.6658 11.9881 13.8247 12.038 13.86L12.3053 14.0541C12.27 13.9512 12.2348 13.8453 12.2025 13.7423C12.1702 13.6393 12.0791 13.4863 12.0997 13.4275C12.1202 13.3687 12.3141 13.2716 12.367 13.2333L12.6313 13.0421H12.3258C12.2642 13.0421 12.0498 13.0804 11.9969 13.0421C11.944 13.0039 11.9146 12.7891 11.897 12.7303C11.8618 12.6243 11.8295 12.5184 11.7972 12.4155C11.7619 12.5184 11.7296 12.6243 11.6944 12.7303C11.6767 12.7891 11.6444 13.0068 11.5945 13.0421C11.5446 13.0774 11.3272 13.0421 11.2655 13.0421H10.9248L11.1892 13.2333C11.242 13.2716 11.4447 13.3687 11.4447 13.4275Z" fill="#F4F4F4"/>
<path id="Path_34" fill-rule="evenodd" clip-rule="evenodd" d="M9.59707 11.8476C9.61469 11.9094 9.51483 12.1036 9.49427 12.1624C9.47371 12.2212 9.42671 12.3713 9.39147 12.4742L9.65875 12.2801C9.70868 12.2448 9.86142 12.0859 9.9231 12.0859C9.98478 12.0859 10.1405 12.2448 10.1904 12.2801L10.4547 12.4742C10.4224 12.3713 10.3872 12.2654 10.3519 12.1624C10.3167 12.0594 10.2315 11.9094 10.2491 11.8476C10.2668 11.7858 10.4665 11.6917 10.5164 11.6564L10.7837 11.4622H10.4547C10.3931 11.4622 10.161 11.5005 10.1258 11.4622C10.0905 11.424 10.0435 11.2092 10.0259 11.1504L9.9231 10.8356C9.89079 10.9415 9.85554 11.0445 9.82323 11.1504C9.80267 11.2092 9.7733 11.4269 9.72043 11.4622C9.66756 11.4975 9.45315 11.4622 9.39147 11.4622H9.0625L9.32979 11.6564C9.38853 11.6917 9.57651 11.7888 9.59707 11.8476Z" fill="#F4F4F4"/>
<path id="Path_35" fill-rule="evenodd" clip-rule="evenodd" d="M9.59707 8.69088C9.61469 8.74972 9.51483 8.94389 9.49427 9.00273L9.38853 9.31752L9.65581 9.12335C9.70575 9.08511 9.85848 8.92918 9.92016 8.92918C9.98184 8.92918 10.1375 9.08511 10.1874 9.12335L10.4518 9.31752C10.4195 9.21161 10.3842 9.10864 10.349 9.00273C10.3314 8.94389 10.2286 8.74972 10.2462 8.69088C10.2638 8.63204 10.4635 8.53496 10.5135 8.49671L10.7808 8.30254H10.4547C10.3931 8.30254 10.161 8.34079 10.1258 8.30254C10.0905 8.2643 10.0435 8.04659 10.0259 7.98775C10.0083 7.92891 9.95835 7.77887 9.9231 7.6759L9.82323 7.98775C9.80267 8.04659 9.7733 8.2643 9.72043 8.30254C9.66756 8.34079 9.45315 8.30254 9.39147 8.30254H9.0625L9.32979 8.49671C9.38853 8.53496 9.57651 8.6291 9.59707 8.69088Z" fill="#F4F4F4"/>
<path id="Path_36" fill-rule="evenodd" clip-rule="evenodd" d="M2.68582 11.4622C2.63296 11.4269 2.60358 11.2092 2.58302 11.1504C2.55071 11.0445 2.51547 10.9415 2.48316 10.8356L2.38036 11.1504C2.36273 11.2092 2.33042 11.4269 2.28049 11.4622C2.23056 11.4975 2.01321 11.4622 1.95152 11.4622H1.62256L1.88984 11.6564C1.93978 11.6917 2.13657 11.7888 2.15419 11.8476C2.17181 11.9064 2.07195 12.1036 2.05433 12.1624C2.0367 12.2212 1.98383 12.3713 1.95152 12.4742L2.21587 12.2801C2.26581 12.2448 2.41854 12.0859 2.48316 12.0859C2.54778 12.0859 2.69757 12.2448 2.74751 12.2801L3.01479 12.4742C2.97954 12.3713 2.9443 12.2654 2.91199 12.1624C2.87968 12.0594 2.78863 11.9094 2.80919 11.8476C2.82975 11.7858 3.02654 11.6917 3.07647 11.6564L3.34082 11.4622H3.01185C2.95017 11.4622 2.73576 11.5005 2.68582 11.4622Z" fill="#F4F4F4"/>
<path id="Path_37" fill-rule="evenodd" clip-rule="evenodd" d="M13.3185 2.37448C13.3361 2.43332 13.2333 2.62749 13.2157 2.68633L13.1129 3.00112L13.3772 2.80695C13.4272 2.7687 13.5829 2.61278 13.6445 2.61278C13.7062 2.61278 13.859 2.7687 13.9089 2.80695L14.1762 3.00112L14.0881 2.68633C14.0704 2.62749 13.9676 2.43332 13.9852 2.37448C14.0029 2.31564 14.2026 2.21561 14.2525 2.18031L14.5198 1.98614H14.1762C14.1145 1.98614 13.8971 2.02144 13.8472 1.98614C13.7973 1.95083 13.765 1.73019 13.7444 1.67135L13.6445 1.3595L13.5447 1.67135C13.5241 1.73019 13.4918 1.94789 13.4419 1.98614C13.3919 2.02438 13.1746 1.98614 13.1129 1.98614H12.7839L13.0512 2.18031C13.1012 2.21561 13.2979 2.3127 13.3185 2.37448Z" fill="#F4F4F4"/>
</g>
</g>
</svg>
