<svg width="30" height="30" viewBox="0 0 30 30" fill="none" xmlns="http://www.w3.org/2000/svg">
<g id="fluent:people-money-20-regular">
<path id="Vector" d="M6.75 8.625C6.75 7.72989 7.10558 6.87145 7.73851 6.23851C8.37145 5.60558 9.22989 5.25 10.125 5.25C11.0201 5.25 11.8785 5.60558 12.5115 6.23851C13.1444 6.87145 13.5 7.72989 13.5 8.625C13.5 9.52011 13.1444 10.3786 12.5115 11.0115C11.8785 11.6444 11.0201 12 10.125 12C9.22989 12 8.37145 11.6444 7.73851 11.0115C7.10558 10.3786 6.75 9.52011 6.75 8.625ZM10.125 3.75C8.83207 3.75 7.59209 4.26361 6.67785 5.17785C5.76361 6.09209 5.25 7.33207 5.25 8.625C5.25 9.91793 5.76361 11.1579 6.67785 12.0721C7.59209 12.9864 8.83207 13.5 10.125 13.5C11.4179 13.5 12.6579 12.9864 13.5721 12.0721C14.4864 11.1579 15 9.91793 15 8.625C15 7.33207 14.4864 6.09209 13.5721 5.17785C12.6579 4.26361 11.4179 3.75 10.125 3.75ZM15 15C15.3735 15 15.7305 15.0675 16.0605 15.1935C15.3315 15.4365 14.7015 15.8985 14.25 16.5H5.25C4.85218 16.5 4.47064 16.658 4.18934 16.9393C3.90804 17.2206 3.75 17.6022 3.75 18V18.117L3.7605 18.2415C3.84178 18.9606 4.09828 19.6487 4.5075 20.2455C5.238 21.3015 6.7695 22.5 10.125 22.5C11.5545 22.5 12.654 22.2825 13.5 21.951V23.25C13.5 23.346 13.503 23.4405 13.5105 23.535C12.5775 23.826 11.46 24 10.125 24C6.3555 24 4.3245 22.62 3.273 21.099C2.71924 20.2924 2.37395 19.3611 2.268 18.3885C2.25904 18.3012 2.25303 18.2137 2.25 18.126V18C2.25 17.2044 2.56607 16.4413 3.12868 15.8787C3.69129 15.3161 4.45435 15 5.25 15H15ZM19.5 9.75C19.5 9.15326 19.7371 8.58097 20.159 8.15901C20.581 7.73705 21.1533 7.5 21.75 7.5C22.3467 7.5 22.919 7.73705 23.341 8.15901C23.7629 8.58097 24 9.15326 24 9.75C24 10.3467 23.7629 10.919 23.341 11.341C22.919 11.7629 22.3467 12 21.75 12C21.1533 12 20.581 11.7629 20.159 11.341C19.7371 10.919 19.5 10.3467 19.5 9.75ZM21.75 6C20.7554 6 19.8016 6.39509 19.0984 7.09835C18.3951 7.80161 18 8.75544 18 9.75C18 10.7446 18.3951 11.6984 19.0984 12.4017C19.8016 13.1049 20.7554 13.5 21.75 13.5C22.7446 13.5 23.6984 13.1049 24.4016 12.4017C25.1049 11.6984 25.5 10.7446 25.5 9.75C25.5 8.75544 25.1049 7.80161 24.4016 7.09835C23.6984 6.39509 22.7446 6 21.75 6ZM15 18.75C15 18.1533 15.2371 17.581 15.659 17.159C16.081 16.7371 16.6533 16.5 17.25 16.5H26.25C26.8467 16.5 27.419 16.7371 27.841 17.159C28.2629 17.581 28.5 18.1533 28.5 18.75V23.25C28.5 23.8467 28.2629 24.419 27.841 24.841C27.419 25.2629 26.8467 25.5 26.25 25.5H17.25C16.6533 25.5 16.081 25.2629 15.659 24.841C15.2371 24.419 15 23.8467 15 23.25V18.75ZM16.5 18.75V20.25C17.0967 20.25 17.669 20.0129 18.091 19.591C18.5129 19.169 18.75 18.5967 18.75 18H17.25C17.25 18.1989 17.171 18.3897 17.0303 18.5303C16.8897 18.671 16.6989 18.75 16.5 18.75ZM27 20.25V18.75C26.8011 18.75 26.6103 18.671 26.4697 18.5303C26.329 18.3897 26.25 18.1989 26.25 18H24.75C24.75 18.5967 24.9871 19.169 25.409 19.591C25.831 20.0129 26.4033 20.25 27 20.25ZM24.75 24H26.25C26.25 23.8011 26.329 23.6103 26.4697 23.4697C26.6103 23.329 26.8011 23.25 27 23.25V21.75C26.4033 21.75 25.831 21.9871 25.409 22.409C24.9871 22.831 24.75 23.4033 24.75 24ZM16.5 21.75V23.25C16.6989 23.25 16.8897 23.329 17.0303 23.4697C17.171 23.6103 17.25 23.8011 17.25 24H18.75C18.75 23.4033 18.5129 22.831 18.091 22.409C17.669 21.9871 17.0967 21.75 16.5 21.75ZM21.75 23.25C22.3467 23.25 22.919 23.0129 23.341 22.591C23.7629 22.169 24 21.5967 24 21C24 20.4033 23.7629 19.831 23.341 19.409C22.919 18.9871 22.3467 18.75 21.75 18.75C21.1533 18.75 20.581 18.9871 20.159 19.409C19.7371 19.831 19.5 20.4033 19.5 21C19.5 21.5967 19.7371 22.169 20.159 22.591C20.581 23.0129 21.1533 23.25 21.75 23.25Z" fill="#222751"/>
</g>
</svg>
