<svg width="41" height="40" viewBox="0 0 41 40" fill="none" xmlns="http://www.w3.org/2000/svg">
<g id="material-symbols-light:zoom-in-map">
<rect x="0.5" width="40" height="40" rx="5" fill="#222751"/>
<path id="Vector" d="M10.9241 32.7019L9.93896 31.7168L14.9481 26.7076H10.3675V25.3162H17.3247V32.2733H15.9332V27.6928L10.9241 32.7019ZM32.0738 32.7019L27.0647 27.6928V32.2733H25.6733V25.3162H32.6304V26.7076H28.0498L33.059 31.7168L32.0738 32.7019ZM10.3675 16.9676V15.5762H14.9481L9.93896 10.567L10.9241 9.58191L15.9332 14.5911V10.0105H17.3247V16.9676H10.3675ZM25.6733 16.9676V10.0105H27.0647V14.5911L32.0738 9.58191L33.059 10.567L28.0498 15.5762H32.6304V16.9676H25.6733Z" fill="white"/>
</g>
</svg>
