<svg width="25" height="24" viewBox="0 0 25 24" fill="none" xmlns="http://www.w3.org/2000/svg">
<g id="grommet-icons:money" clip-path="url(#clip0_12_1181)">
<path id="Vector" d="M16.5 16C16.5 14.895 13.366 14 9.5 14M16.5 16C16.5 17.105 13.366 18 9.5 18C5.634 18 2.5 17.105 2.5 16M16.5 16V20.937C16.5 22.076 13.366 23 9.5 23C5.634 23 2.5 22.077 2.5 20.937V16M16.5 16C20.324 16 23.5 15.013 23.5 14V4M9.5 14C5.634 14 2.5 14.895 2.5 16M9.5 14C5.082 14 1.5 13.013 1.5 12V7M9.5 5C5.082 5 1.5 5.895 1.5 7M1.5 7C1.5 8.105 5.082 9 9.5 9C9.5 10.013 12.753 11 16.577 11C20.4 11 23.5 10.013 23.5 9M23.5 4C23.5 2.895 20.4 2 16.577 2C12.753 2 9.654 2.895 9.654 4M23.5 4C23.5 5.105 20.4 6 16.577 6C12.754 6 9.654 5.105 9.654 4M9.654 4V14.166" stroke="white" stroke-width="2"/>
</g>
<defs>
<clipPath id="clip0_12_1181">
<rect width="24" height="24" fill="white" transform="translate(0.5)"/>
</clipPath>
</defs>
</svg>
