<svg width="31" height="30" viewBox="0 0 31 30" fill="none" xmlns="http://www.w3.org/2000/svg">
<g id="Group 744">
<path id="Vector" d="M9.9186 29.5C9.52791 29.5 9.12323 29.4017 8.76044 29.2049C7.96509 28.7831 7.47674 27.9396 7.47674 27.04V25.044C3.26279 24.6082 0.5 21.4874 0.5 17.0172V8.58291C0.5 3.74722 3.72326 0.5 8.52326 0.5H22.4767C27.2767 0.5 30.5 3.74722 30.5 8.58291V17.0172C30.5 21.8529 27.2767 25.1001 22.4767 25.1001H17.2163L11.2721 29.0925C10.8674 29.3595 10.393 29.5 9.9186 29.5ZM8.52326 2.59451C4.92326 2.59451 2.59302 4.94207 2.59302 8.56884V17.0033C2.59302 20.63 4.92326 22.9776 8.52326 22.9776C9.09535 22.9776 9.56977 23.4555 9.56977 24.0319V27.0261C9.56977 27.2088 9.6814 27.2931 9.75117 27.3353C9.82094 27.3775 9.96048 27.4196 10.114 27.3212L16.3233 23.1603C16.4907 23.0479 16.7 22.9776 16.9093 22.9776H22.4907C26.0907 22.9776 28.4209 20.63 28.4209 17.0033V8.56884C28.4209 4.94207 26.0907 2.59451 22.4907 2.59451H8.52326Z" fill="#F76868"/>
<path id="Vector_2" d="M14.9815 19.1429C14.1015 19.1429 13.3718 18.4386 13.3718 17.5893V17.1544C13.3718 14.7515 15.1961 13.5708 15.8829 13.1151C16.677 12.5972 16.9345 12.2451 16.9345 11.7065C16.9345 10.6708 16.0546 9.82144 14.9815 9.82144C13.9084 9.82144 13.0285 10.6708 13.0285 11.7065C13.0285 12.5558 12.2987 13.2601 11.4188 13.2601C10.5388 13.2601 9.80908 12.5558 9.80908 11.7065C9.80908 8.95151 12.127 6.71429 14.9815 6.71429C17.836 6.71429 20.1539 8.95151 20.1539 11.7065C20.1539 14.0679 18.3511 15.2486 17.6858 15.6836C16.8488 16.2222 16.5912 16.5744 16.5912 17.1544V17.5893C16.5912 18.4593 15.8615 19.1429 14.9815 19.1429Z" fill="#F76868"/>
</g>
</svg>
