<svg width="36" height="36" viewBox="0 0 36 36" fill="none" xmlns="http://www.w3.org/2000/svg">
<g id="iconoir:bell-notification">
<path id="Vector" d="M26.9454 16.5417C27.7927 24.3802 31.125 26.75 31.125 26.75H4.875C4.875 26.75 9.25 23.6394 9.25 12.75C9.25 10.2752 10.1717 7.90106 11.8123 6.15106C13.4544 4.40106 15.6813 3.41669 18 3.41669C18.4915 3.41669 18.98 3.46044 19.4583 3.54794M20.5229 31.125C20.2668 31.5674 19.8989 31.9346 19.4561 32.1899C19.0133 32.4452 18.5111 32.5796 18 32.5796C17.4889 32.5796 16.9867 32.4452 16.5439 32.1899C16.1011 31.9346 15.7332 31.5674 15.4771 31.125M28.2083 12.1667C29.3687 12.1667 30.4815 11.7058 31.3019 10.8853C32.1224 10.0648 32.5833 8.95201 32.5833 7.79169C32.5833 6.63136 32.1224 5.51857 31.3019 4.6981C30.4815 3.87762 29.3687 3.41669 28.2083 3.41669C27.048 3.41669 25.9352 3.87762 25.1147 4.6981C24.2943 5.51857 23.8333 6.63136 23.8333 7.79169C23.8333 8.95201 24.2943 10.0648 25.1147 10.8853C25.9352 11.7058 27.048 12.1667 28.2083 12.1667Z" stroke="#A20F0F" stroke-width="1.5" stroke-linecap="round" stroke-linejoin="round"/>
</g>
</svg>
