<svg width="21" height="21" viewBox="0 0 21 21" fill="none" xmlns="http://www.w3.org/2000/svg">
<g id="iconamoon:invoice-light">
<path id="Vector" d="M13.0001 6.33333H8.00008M13.0001 9.66667H8.00008M13.0001 13H9.66675M4.66675 3H16.3334V18L15.4734 17.2633C15.1714 17.0045 14.7867 16.8622 14.3888 16.8622C13.991 16.8622 13.6063 17.0045 13.3042 17.2633L12.4442 18L11.5851 17.2633C11.283 17.0042 10.8981 16.8618 10.5001 16.8618C10.1021 16.8618 9.7172 17.0042 9.41508 17.2633L8.55591 18L7.69592 17.2633C7.39385 17.0045 7.00915 16.8622 6.61133 16.8622C6.21351 16.8622 5.82881 17.0045 5.52675 17.2633L4.66675 18V3Z" stroke="#656565" stroke-width="1.5" stroke-linecap="round" stroke-linejoin="round"/>
</g>
</svg>
