<svg width="26" height="25" viewBox="0 0 26 25" fill="none" xmlns="http://www.w3.org/2000/svg">
<g id="material-symbols-light:point-of-sale-sharp">
<path id="Vector" d="M6.95964 8.45086V3.91187H18.8971V8.45086H6.95964ZM8.0013 7.45087H17.8555V4.91187H8.0013V7.45087ZM4.35547 20.3729V17.7569H21.5013V20.3729H4.35547ZM4.35547 16.9879L7.62005 9.44987H18.2367L21.5023 16.9879H4.35547ZM9.12214 15.3729H10.9659V14.6029H9.12214V15.3729ZM9.12214 13.6029H10.9659V12.8339H9.12214V13.6029ZM9.12214 11.8339H10.9659V11.0649H9.12214V11.8339ZM12.0076 15.3729H13.8503V14.6029H12.0065L12.0076 15.3729ZM12.0076 13.6029H13.8503V12.8339H12.0065L12.0076 13.6029ZM12.0076 11.8339H13.8503V11.0649H12.0065L12.0076 11.8339ZM14.8919 15.3729H16.7346V14.6029H14.8909L14.8919 15.3729ZM14.8919 13.6029H16.7346V12.8339H14.8909L14.8919 13.6029ZM14.8919 11.8339H16.7346V11.0649H14.8909L14.8919 11.8339Z" fill="#FEFEFE"/>
</g>
</svg>
