<svg width="36" height="37" viewBox="0 0 36 37" fill="none" xmlns="http://www.w3.org/2000/svg">
<g id="twemoji:sun-behind-large-cloud">
<path id="Vector" d="M13 6.5C13 6.5 13 4.5 15 4.5C17 4.5 17 6.5 17 6.5V8.5C17 8.5 17 10.5 15 10.5C13 10.5 13 8.5 13 8.5V6.5ZM4 17.5C4 17.5 6 17.5 6 19.5C6 21.5 4 21.5 4 21.5H2C2 21.5 0 21.5 0 19.5C0 17.5 2 17.5 2 17.5H4ZM7.872 10.543C7.872 10.543 9.286 11.957 7.872 13.371C6.458 14.785 5.044 13.371 5.044 13.371L3.629 11.957C3.629 11.957 2.215 10.543 3.629 9.128C5.044 7.714 6.458 9.128 6.458 9.128L7.872 10.543ZM24.957 13.371C24.957 13.371 23.543 14.785 22.129 13.371C20.715 11.957 22.129 10.543 22.129 10.543L23.543 9.129C23.543 9.129 24.957 7.715 26.371 9.129C27.785 10.543 26.371 11.957 26.371 11.957L24.957 13.371Z" fill="#FFAC33"/>
<path id="Vector_2" d="M15 27.5C19.4183 27.5 23 23.9183 23 19.5C23 15.0817 19.4183 11.5 15 11.5C10.5817 11.5 7 15.0817 7 19.5C7 23.9183 10.5817 27.5 15 27.5Z" fill="#FFAC33"/>
<path id="Vector_3" d="M28.223 17.3C27.42 17.3 26.648 17.419 25.919 17.64C25.057 15.231 22.718 13.5 19.958 13.5C16.999 13.5 14.521 15.491 13.835 18.175C13.0766 17.6084 12.1557 17.3015 11.209 17.3C8.792 17.3 6.834 19.214 6.834 21.575C6.834 22.148 6.954 22.693 7.163 23.193C6.73953 23.071 6.30166 23.0061 5.861 23C3.176 23 1 25.126 1 27.75C1 30.374 3.176 32.5 5.861 32.5H28.222C32.518 32.5 36 29.098 36 24.9C36 20.702 32.518 17.3 28.223 17.3Z" fill="#E1E8ED"/>
</g>
</svg>
